<?xml version="1.0" encoding="UTF-8" standalone="no"?>
<!DOCTYPE svg PUBLIC "-//W3C//DTD SVG 1.1//EN"
 "http://www.w3.org/Graphics/SVG/1.1/DTD/svg11.dtd">
<!-- Generated by graphviz version 2.38.0 (20140413.2041)
 -->
<!-- Title: %3 Pages: 1 -->
<svg width="710pt" height="530pt"
 viewBox="0.00 0.00 710.00 529.74" xmlns="http://www.w3.org/2000/svg" xmlns:xlink="http://www.w3.org/1999/xlink">
<g id="graph0" class="graph" transform="scale(1 1) rotate(0) translate(4 525.74)">
<title>%3</title>
<polygon fill="white" stroke="none" points="-4,4 -4,-525.74 706,-525.74 706,4 -4,4"/>
<g id="clust1" class="cluster"><title>cluster_0</title>
<polygon fill="none" stroke="black" points="8,-8 8,-310.74 172,-310.74 172,-8 8,-8"/>
</g>
<g id="clust2" class="cluster"><title>cluster_1</title>
<polygon fill="none" stroke="black" points="246,-8 246,-310.74 694,-310.74 694,-8 246,-8"/>
</g>
<!-- start -->
<g id="node1" class="node"><title>start</title>
<ellipse fill="none" stroke="black" cx="334" cy="-503.74" rx="33.2948" ry="18"/>
<text text-anchor="middle" x="334" y="-500.04" font-family="Times,serif" font-size="14.00">start</text>
</g>
<!-- load_config -->
<g id="node2" class="node"><title>load_config</title>
<ellipse fill="none" stroke="black" cx="334" cy="-430.74" rx="63.8893" ry="18"/>
<text text-anchor="middle" x="334" y="-427.04" font-family="Times,serif" font-size="14.00">load_config</text>
</g>
<!-- start&#45;&gt;load_config -->
<g id="edge1" class="edge"><title>start&#45;&gt;load_config</title>
<path fill="none" stroke="black" d="M334,-485.553C334,-477.53 334,-467.788 334,-458.809"/>
<polygon fill="black" stroke="black" points="337.5,-458.769 334,-448.769 330.5,-458.769 337.5,-458.769"/>
</g>
<!-- parse_args -->
<g id="node3" class="node"><title>parse_args</title>
<ellipse fill="none" stroke="black" cx="334" cy="-357.74" rx="61.99" ry="18"/>
<text text-anchor="middle" x="334" y="-354.04" font-family="Times,serif" font-size="14.00">parse_args</text>
</g>
<!-- load_config&#45;&gt;parse_args -->
<g id="edge2" class="edge"><title>load_config&#45;&gt;parse_args</title>
<path fill="none" stroke="black" d="M334,-412.553C334,-404.53 334,-394.788 334,-385.809"/>
<polygon fill="black" stroke="black" points="337.5,-385.769 334,-375.769 330.5,-385.769 337.5,-385.769"/>
</g>
<!-- update -->
<g id="node4" class="node"><title>update</title>
<ellipse fill="none" stroke="black" cx="113" cy="-284.74" rx="42.7926" ry="18"/>
<text text-anchor="middle" x="113" y="-281.04" font-family="Times,serif" font-size="14.00">update</text>
</g>
<!-- parse_args&#45;&gt;update -->
<g id="edge3" class="edge"><title>parse_args&#45;&gt;update</title>
<path fill="none" stroke="black" d="M294.234,-343.965C255.168,-331.414 195.753,-312.326 155.704,-299.459"/>
<polygon fill="black" stroke="black" points="156.555,-296.057 145.963,-296.33 154.413,-302.721 156.555,-296.057"/>
</g>
<!-- get_latest_unplayed_urls -->
<g id="node5" class="node"><title>get_latest_unplayed_urls</title>
<ellipse fill="none" stroke="black" cx="559" cy="-284.74" rx="127.277" ry="18"/>
<text text-anchor="middle" x="559" y="-281.04" font-family="Times,serif" font-size="14.00">get_latest_unplayed_urls</text>
</g>
<!-- parse_args&#45;&gt;get_latest_unplayed_urls -->
<g id="edge4" class="edge"><title>parse_args&#45;&gt;get_latest_unplayed_urls</title>
<path fill="none" stroke="black" d="M374.225,-344.047C409.141,-333.029 460.163,-316.929 499.751,-304.437"/>
<polygon fill="black" stroke="black" points="500.811,-307.772 509.294,-301.425 498.704,-301.097 500.811,-307.772"/>
</g>
<!-- get_latest_urls -->
<g id="node6" class="node"><title>get_latest_urls</title>
<ellipse fill="none" stroke="black" cx="334" cy="-284.74" rx="79.8859" ry="18"/>
<text text-anchor="middle" x="334" y="-281.04" font-family="Times,serif" font-size="14.00">get_latest_urls</text>
</g>
<!-- parse_args&#45;&gt;get_latest_urls -->
<g id="edge5" class="edge"><title>parse_args&#45;&gt;get_latest_urls</title>
<path fill="none" stroke="black" d="M334,-339.553C334,-331.53 334,-321.788 334,-312.809"/>
<polygon fill="black" stroke="black" points="337.5,-312.769 334,-302.769 330.5,-312.769 337.5,-312.769"/>
</g>
<!-- allupdated -->
<g id="node7" class="node"><title>allupdated</title>
<ellipse fill="none" stroke="black" cx="90" cy="-202.87" rx="73.5782" ry="26.7407"/>
<text text-anchor="middle" x="90" y="-206.67" font-family="Times,serif" font-size="14.00">Are they</text>
<text text-anchor="middle" x="90" y="-191.67" font-family="Times,serif" font-size="14.00">all updated?</text>
</g>
<!-- update&#45;&gt;allupdated -->
<g id="edge6" class="edge"><title>update&#45;&gt;allupdated</title>
<path fill="none" stroke="black" d="M108.122,-266.802C105.832,-258.849 103.011,-249.051 100.282,-239.574"/>
<polygon fill="black" stroke="black" points="103.628,-238.546 97.4972,-229.905 96.9012,-240.483 103.628,-238.546"/>
</g>
<!-- loop -->
<g id="node10" class="node"><title>loop</title>
<ellipse fill="none" stroke="black" cx="557" cy="-202.87" rx="123.073" ry="26.7407"/>
<text text-anchor="middle" x="557" y="-206.67" font-family="Times,serif" font-size="14.00">Have you downloaded</text>
<text text-anchor="middle" x="557" y="-191.67" font-family="Times,serif" font-size="14.00">all new episodes?</text>
</g>
<!-- get_latest_unplayed_urls&#45;&gt;loop -->
<g id="edge10" class="edge"><title>get_latest_unplayed_urls&#45;&gt;loop</title>
<path fill="none" stroke="black" d="M558.566,-266.41C558.372,-258.676 558.136,-249.256 557.907,-240.098"/>
<polygon fill="black" stroke="black" points="561.403,-239.883 557.654,-229.974 554.405,-240.059 561.403,-239.883"/>
</g>
<!-- output_playlist -->
<g id="node13" class="node"><title>output_playlist</title>
<ellipse fill="none" stroke="black" cx="335" cy="-202.87" rx="80.6858" ry="18"/>
<text text-anchor="middle" x="335" y="-199.17" font-family="Times,serif" font-size="14.00">output_playlist</text>
</g>
<!-- get_latest_urls&#45;&gt;output_playlist -->
<g id="edge14" class="edge"><title>get_latest_urls&#45;&gt;output_playlist</title>
<path fill="none" stroke="black" d="M334.217,-266.41C334.346,-256.082 334.513,-242.748 334.66,-231.046"/>
<polygon fill="black" stroke="black" points="338.161,-230.936 334.787,-220.892 331.162,-230.848 338.161,-230.936"/>
</g>
<!-- get_rss -->
<g id="node8" class="node"><title>get_rss</title>
<ellipse fill="none" stroke="black" cx="104" cy="-107" rx="44.6926" ry="18"/>
<text text-anchor="middle" x="104" y="-103.3" font-family="Times,serif" font-size="14.00">get_rss</text>
</g>
<!-- allupdated&#45;&gt;get_rss -->
<g id="edge7" class="edge"><title>allupdated&#45;&gt;get_rss</title>
<path fill="none" stroke="black" d="M93.8626,-175.971C95.7469,-163.337 98.0136,-148.139 99.9254,-135.32"/>
<polygon fill="black" stroke="black" points="103.418,-135.628 101.432,-125.221 96.4946,-134.596 103.418,-135.628"/>
<text text-anchor="middle" x="108" y="-146.8" font-family="Times,serif" font-size="14.00">no</text>
</g>
<!-- exit -->
<g id="node14" class="node"><title>exit</title>
<ellipse fill="none" stroke="black" cx="209" cy="-107" rx="28.6953" ry="18"/>
<text text-anchor="middle" x="209" y="-103.3" font-family="Times,serif" font-size="14.00">exit</text>
</g>
<!-- allupdated&#45;&gt;exit -->
<g id="edge17" class="edge"><title>allupdated&#45;&gt;exit</title>
<path fill="none" stroke="black" d="M120.029,-178.183C139.733,-162.64 165.205,-142.546 183.842,-127.845"/>
<polygon fill="black" stroke="black" points="186.195,-130.447 191.879,-121.505 181.86,-124.951 186.195,-130.447"/>
<text text-anchor="middle" x="176.5" y="-146.8" font-family="Times,serif" font-size="14.00">yes</text>
</g>
<!-- add_entry -->
<g id="node9" class="node"><title>add_entry</title>
<ellipse fill="none" stroke="black" cx="81" cy="-34" rx="57.6901" ry="18"/>
<text text-anchor="middle" x="81" y="-30.3" font-family="Times,serif" font-size="14.00">add_entry</text>
</g>
<!-- get_rss&#45;&gt;add_entry -->
<g id="edge8" class="edge"><title>get_rss&#45;&gt;add_entry</title>
<path fill="none" stroke="black" d="M98.4323,-88.8129C95.805,-80.7023 92.6087,-70.8355 89.6741,-61.7766"/>
<polygon fill="black" stroke="black" points="92.9279,-60.4635 86.5164,-52.0288 86.2686,-62.6208 92.9279,-60.4635"/>
</g>
<!-- add_entry&#45;&gt;allupdated -->
<g id="edge9" class="edge"><title>add_entry&#45;&gt;allupdated</title>
<path fill="none" stroke="black" d="M68.1736,-51.9727C61.3148,-62.1303 53.5648,-75.6303 50,-89 45.8779,-104.46 46.1983,-109.458 50,-125 53.5955,-139.699 60.5409,-154.714 67.6485,-167.528"/>
<polygon fill="black" stroke="black" points="64.7661,-169.535 72.8071,-176.434 70.8232,-166.026 64.7661,-169.535"/>
</g>
<!-- download_episode -->
<g id="node11" class="node"><title>download_episode</title>
<ellipse fill="none" stroke="black" cx="581" cy="-107" rx="95.5831" ry="18"/>
<text text-anchor="middle" x="581" y="-103.3" font-family="Times,serif" font-size="14.00">download_episode</text>
</g>
<!-- loop&#45;&gt;download_episode -->
<g id="edge11" class="edge"><title>loop&#45;&gt;download_episode</title>
<path fill="none" stroke="black" d="M563.622,-175.971C566.884,-163.211 570.815,-147.835 574.113,-134.937"/>
<polygon fill="black" stroke="black" points="577.511,-135.777 576.597,-125.221 570.729,-134.043 577.511,-135.777"/>
<text text-anchor="middle" x="580" y="-146.8" font-family="Times,serif" font-size="14.00">no</text>
</g>
<!-- loop&#45;&gt;exit -->
<g id="edge15" class="edge"><title>loop&#45;&gt;exit</title>
<path fill="none" stroke="black" d="M471.8,-183.46C393.536,-166.116 283.593,-140.538 242,-125 240.974,-124.617 239.938,-124.209 238.899,-123.783"/>
<polygon fill="black" stroke="black" points="240.162,-120.512 229.61,-119.558 237.263,-126.884 240.162,-120.512"/>
<text text-anchor="middle" x="368.5" y="-146.8" font-family="Times,serif" font-size="14.00">yes</text>
</g>
<!-- mark_played -->
<g id="node12" class="node"><title>mark_played</title>
<ellipse fill="none" stroke="black" cx="496" cy="-34" rx="70.6878" ry="18"/>
<text text-anchor="middle" x="496" y="-30.3" font-family="Times,serif" font-size="14.00">mark_played</text>
</g>
<!-- download_episode&#45;&gt;mark_played -->
<g id="edge12" class="edge"><title>download_episode&#45;&gt;mark_played</title>
<path fill="none" stroke="black" d="M560.856,-89.174C549.661,-79.8224 535.572,-68.054 523.388,-57.8769"/>
<polygon fill="black" stroke="black" points="525.625,-55.1849 515.706,-51.4603 521.137,-60.5573 525.625,-55.1849"/>
</g>
<!-- mark_played&#45;&gt;loop -->
<g id="edge13" class="edge"><title>mark_played&#45;&gt;loop</title>
<path fill="none" stroke="black" d="M486.263,-51.8333C476.897,-70.3609 465.575,-100.734 476,-125 483.619,-142.735 497.564,-158.302 511.761,-170.705"/>
<polygon fill="black" stroke="black" points="509.712,-173.553 519.636,-177.264 514.192,-168.175 509.712,-173.553"/>
</g>
<!-- output_playlist&#45;&gt;exit -->
<g id="edge16" class="edge"><title>output_playlist&#45;&gt;exit</title>
<path fill="none" stroke="black" d="M313.052,-185.519C291.42,-169.403 258.351,-144.766 235.319,-127.607"/>
<polygon fill="black" stroke="black" points="237.138,-124.598 227.028,-121.431 232.956,-130.212 237.138,-124.598"/>
</g>
</g>
</svg>
