<?xml version="1.0" encoding="UTF-8" standalone="no"?>
<!DOCTYPE svg PUBLIC "-//W3C//DTD SVG 1.1//EN"
 "http://www.w3.org/Graphics/SVG/1.1/DTD/svg11.dtd">
<!-- Generated by graphviz version 2.38.0 (20140413.2041)
 -->
<!-- Title: %3 Pages: 1 -->
<svg width="842pt" height="615pt"
 viewBox="0.00 0.00 842.20 614.74" xmlns="http://www.w3.org/2000/svg" xmlns:xlink="http://www.w3.org/1999/xlink">
<g id="graph0" class="graph" transform="scale(1 1) rotate(0) translate(4 610.74)">
<title>%3</title>
<polygon fill="white" stroke="none" points="-4,4 -4,-610.74 838.201,-610.74 838.201,4 -4,4"/>
<g id="clust1" class="cluster"><title>cluster_0</title>
<polygon fill="none" stroke="black" points="12.2005,-79 12.2005,-541.74 226.201,-541.74 226.201,-79 12.2005,-79"/>
</g>
<g id="clust2" class="cluster"><title>cluster_1</title>
<polygon fill="none" stroke="black" points="234.201,-79 234.201,-541.74 826.201,-541.74 826.201,-79 234.201,-79"/>
</g>
<!-- start -->
<g id="node1" class="node"><title>start</title>
<ellipse fill="none" stroke="black" cx="288.201" cy="-588.74" rx="33.2948" ry="18"/>
<text text-anchor="middle" x="288.201" y="-585.04" font-family="Times,serif" font-size="14.00">start</text>
</g>
<!-- uptate_start -->
<g id="node2" class="node"><title>uptate_start</title>
<ellipse fill="none" stroke="black" cx="142.201" cy="-515.74" rx="68.4888" ry="18"/>
<text text-anchor="middle" x="142.201" y="-512.04" font-family="Times,serif" font-size="14.00">uptate_start</text>
</g>
<!-- start&#45;&gt;uptate_start -->
<g id="edge1" class="edge"><title>start&#45;&gt;uptate_start</title>
<path fill="none" stroke="black" d="M264.418,-576.175C242.325,-565.431 208.974,-549.212 182.69,-536.43"/>
<polygon fill="black" stroke="black" points="183.883,-533.119 173.36,-531.893 180.822,-539.414 183.883,-533.119"/>
</g>
<!-- output_start -->
<g id="node3" class="node"><title>output_start</title>
<ellipse fill="none" stroke="black" cx="358.201" cy="-515.74" rx="68.7879" ry="18"/>
<text text-anchor="middle" x="358.201" y="-512.04" font-family="Times,serif" font-size="14.00">output_start</text>
</g>
<!-- start&#45;&gt;output_start -->
<g id="edge2" class="edge"><title>start&#45;&gt;output_start</title>
<path fill="none" stroke="black" d="M303.39,-572.334C312.514,-563.079 324.317,-551.108 334.632,-540.645"/>
<polygon fill="black" stroke="black" points="337.292,-542.933 341.82,-533.354 332.307,-538.018 337.292,-542.933"/>
</g>
<!-- uptate_load_config -->
<g id="node4" class="node"><title>uptate_load_config</title>
<ellipse fill="none" stroke="black" cx="119.201" cy="-442.74" rx="98.5829" ry="18"/>
<text text-anchor="middle" x="119.201" y="-439.04" font-family="Times,serif" font-size="14.00">uptate_load_config</text>
</g>
<!-- uptate_start&#45;&gt;uptate_load_config -->
<g id="edge3" class="edge"><title>uptate_start&#45;&gt;uptate_load_config</title>
<path fill="none" stroke="black" d="M136.633,-497.553C134.006,-489.442 130.809,-479.576 127.875,-470.517"/>
<polygon fill="black" stroke="black" points="131.128,-469.204 124.717,-460.769 124.469,-471.361 131.128,-469.204"/>
</g>
<!-- output_load_config -->
<g id="node9" class="node"><title>output_load_config</title>
<ellipse fill="none" stroke="black" cx="405.201" cy="-442.74" rx="98.5829" ry="18"/>
<text text-anchor="middle" x="405.201" y="-439.04" font-family="Times,serif" font-size="14.00">output_load_config</text>
</g>
<!-- output_start&#45;&gt;output_load_config -->
<g id="edge9" class="edge"><title>output_start&#45;&gt;output_load_config</title>
<path fill="none" stroke="black" d="M369.339,-497.914C374.992,-489.374 381.979,-478.819 388.28,-469.301"/>
<polygon fill="black" stroke="black" points="391.214,-471.209 393.816,-460.939 385.377,-467.345 391.214,-471.209"/>
</g>
<!-- uptate_update -->
<g id="node5" class="node"><title>uptate_update</title>
<ellipse fill="none" stroke="black" cx="118.201" cy="-369.74" rx="77.9862" ry="18"/>
<text text-anchor="middle" x="118.201" y="-366.04" font-family="Times,serif" font-size="14.00">uptate_update</text>
</g>
<!-- uptate_load_config&#45;&gt;uptate_update -->
<g id="edge4" class="edge"><title>uptate_load_config&#45;&gt;uptate_update</title>
<path fill="none" stroke="black" d="M118.958,-424.553C118.845,-416.53 118.708,-406.788 118.582,-397.809"/>
<polygon fill="black" stroke="black" points="122.081,-397.719 118.44,-387.769 115.082,-397.817 122.081,-397.719"/>
</g>
<!-- uptate_allupdated -->
<g id="node6" class="node"><title>uptate_allupdated</title>
<ellipse fill="none" stroke="black" cx="118.201" cy="-287.87" rx="73.5782" ry="26.7407"/>
<text text-anchor="middle" x="118.201" y="-291.67" font-family="Times,serif" font-size="14.00">Are they</text>
<text text-anchor="middle" x="118.201" y="-276.67" font-family="Times,serif" font-size="14.00">all updated?</text>
</g>
<!-- uptate_update&#45;&gt;uptate_allupdated -->
<g id="edge5" class="edge"><title>uptate_update&#45;&gt;uptate_allupdated</title>
<path fill="none" stroke="black" d="M118.201,-351.41C118.201,-343.676 118.201,-334.256 118.201,-325.098"/>
<polygon fill="black" stroke="black" points="121.701,-324.974 118.201,-314.974 114.701,-324.974 121.701,-324.974"/>
</g>
<!-- uptate_get_rss -->
<g id="node7" class="node"><title>uptate_get_rss</title>
<ellipse fill="none" stroke="black" cx="115.201" cy="-192" rx="79.8859" ry="18"/>
<text text-anchor="middle" x="115.201" y="-188.3" font-family="Times,serif" font-size="14.00">uptate_get_rss</text>
</g>
<!-- uptate_allupdated&#45;&gt;uptate_get_rss -->
<g id="edge6" class="edge"><title>uptate_allupdated&#45;&gt;uptate_get_rss</title>
<path fill="none" stroke="black" d="M117.373,-260.971C116.969,-248.337 116.483,-233.139 116.074,-220.32"/>
<polygon fill="black" stroke="black" points="119.569,-220.105 115.751,-210.221 112.572,-220.328 119.569,-220.105"/>
<text text-anchor="middle" x="126.201" y="-231.8" font-family="Times,serif" font-size="14.00">no</text>
</g>
<!-- exit -->
<g id="node16" class="node"><title>exit</title>
<ellipse fill="none" stroke="black" cx="492.201" cy="-18" rx="28.6953" ry="18"/>
<text text-anchor="middle" x="492.201" y="-14.3" font-family="Times,serif" font-size="14.00">exit</text>
</g>
<!-- uptate_allupdated&#45;&gt;exit -->
<g id="edge19" class="edge"><title>uptate_allupdated&#45;&gt;exit</title>
<path fill="none" stroke="black" d="M78.6095,-264.809C59.1196,-251.645 37.4423,-233.001 26.2005,-210 0.627669,-157.678 -15.2781,-122.715 23.2005,-79 51.5445,-46.7989 346.314,-27.1799 453.506,-21.0656"/>
<polygon fill="black" stroke="black" points="453.785,-24.5555 463.573,-20.4998 453.393,-17.5665 453.785,-24.5555"/>
<text text-anchor="middle" x="16.7005" y="-144.8" font-family="Times,serif" font-size="14.00">yes</text>
</g>
<!-- uptate_add_entry -->
<g id="node8" class="node"><title>uptate_add_entry</title>
<ellipse fill="none" stroke="black" cx="125.201" cy="-105" rx="92.8835" ry="18"/>
<text text-anchor="middle" x="125.201" y="-101.3" font-family="Times,serif" font-size="14.00">uptate_add_entry</text>
</g>
<!-- uptate_get_rss&#45;&gt;uptate_add_entry -->
<g id="edge7" class="edge"><title>uptate_get_rss&#45;&gt;uptate_add_entry</title>
<path fill="none" stroke="black" d="M117.224,-173.799C118.593,-162.163 120.43,-146.548 121.996,-133.237"/>
<polygon fill="black" stroke="black" points="125.487,-133.516 123.18,-123.175 118.535,-132.698 125.487,-133.516"/>
</g>
<!-- uptate_add_entry&#45;&gt;uptate_allupdated -->
<g id="edge8" class="edge"><title>uptate_add_entry&#45;&gt;uptate_allupdated</title>
<path fill="none" stroke="black" d="M154.637,-122.331C172.603,-134.098 194.015,-151.794 204.201,-174 210.871,-188.543 210.735,-195.395 204.201,-210 195.634,-229.146 179.681,-245.493 163.82,-258.127"/>
<polygon fill="black" stroke="black" points="161.42,-255.554 155.573,-264.39 165.654,-261.129 161.42,-255.554"/>
</g>
<!-- output_get_latest_urls -->
<g id="node10" class="node"><title>output_get_latest_urls</title>
<ellipse fill="none" stroke="black" cx="702.201" cy="-369.74" rx="115.88" ry="18"/>
<text text-anchor="middle" x="702.201" y="-366.04" font-family="Times,serif" font-size="14.00">output_get_latest_urls</text>
</g>
<!-- output_load_config&#45;&gt;output_get_latest_urls -->
<g id="edge10" class="edge"><title>output_load_config&#45;&gt;output_get_latest_urls</title>
<path fill="none" stroke="black" d="M462.465,-428.051C510.923,-416.466 580.542,-399.824 632.283,-387.454"/>
<polygon fill="black" stroke="black" points="633.141,-390.848 642.053,-385.119 631.514,-384.04 633.141,-390.848"/>
</g>
<!-- output_get_latest_unplayed_urls -->
<g id="node11" class="node"><title>output_get_latest_unplayed_urls</title>
<ellipse fill="none" stroke="black" cx="405.201" cy="-369.74" rx="163.271" ry="18"/>
<text text-anchor="middle" x="405.201" y="-366.04" font-family="Times,serif" font-size="14.00">output_get_latest_unplayed_urls</text>
</g>
<!-- output_load_config&#45;&gt;output_get_latest_unplayed_urls -->
<g id="edge11" class="edge"><title>output_load_config&#45;&gt;output_get_latest_unplayed_urls</title>
<path fill="none" stroke="black" d="M405.201,-424.553C405.201,-416.53 405.201,-406.788 405.201,-397.809"/>
<polygon fill="black" stroke="black" points="408.701,-397.769 405.201,-387.769 401.701,-397.769 408.701,-397.769"/>
</g>
<!-- output_output -->
<g id="node15" class="node"><title>output_output</title>
<ellipse fill="none" stroke="black" cx="694.201" cy="-287.87" rx="77.1866" ry="18"/>
<text text-anchor="middle" x="694.201" y="-284.17" font-family="Times,serif" font-size="14.00">output_output</text>
</g>
<!-- output_get_latest_urls&#45;&gt;output_output -->
<g id="edge16" class="edge"><title>output_get_latest_urls&#45;&gt;output_output</title>
<path fill="none" stroke="black" d="M700.465,-351.41C699.43,-341.082 698.095,-327.748 696.923,-316.046"/>
<polygon fill="black" stroke="black" points="700.385,-315.494 695.906,-305.892 693.42,-316.192 700.385,-315.494"/>
</g>
<!-- output_loop -->
<g id="node12" class="node"><title>output_loop</title>
<ellipse fill="none" stroke="black" cx="492.201" cy="-105" rx="65.7887" ry="18"/>
<text text-anchor="middle" x="492.201" y="-101.3" font-family="Times,serif" font-size="14.00">output_loop</text>
</g>
<!-- output_get_latest_unplayed_urls&#45;&gt;output_loop -->
<g id="edge12" class="edge"><title>output_get_latest_unplayed_urls&#45;&gt;output_loop</title>
<path fill="none" stroke="black" d="M489.826,-354.293C512.949,-346.319 535.838,-333.945 551.201,-314.74 590.467,-265.653 590.281,-231.64 565.201,-174 557.096,-155.374 541.095,-139.542 526.135,-127.853"/>
<polygon fill="black" stroke="black" points="528.101,-124.953 517.988,-121.795 523.924,-130.57 528.101,-124.953"/>
</g>
<!-- output_download -->
<g id="node13" class="node"><title>output_download</title>
<ellipse fill="none" stroke="black" cx="451.201" cy="-287.87" rx="90.9839" ry="18"/>
<text text-anchor="middle" x="451.201" y="-284.17" font-family="Times,serif" font-size="14.00">output_download</text>
</g>
<!-- output_loop&#45;&gt;output_download -->
<g id="edge13" class="edge"><title>output_loop&#45;&gt;output_download</title>
<path fill="none" stroke="black" d="M488.324,-123.102C481.166,-154.678 465.828,-222.34 457.277,-260.063"/>
<polygon fill="black" stroke="black" points="453.855,-259.328 455.058,-269.854 460.682,-260.875 453.855,-259.328"/>
<text text-anchor="middle" x="518.701" y="-188.3" font-family="Times,serif" font-size="14.00">not finished</text>
</g>
<!-- output_loop&#45;&gt;exit -->
<g id="edge17" class="edge"><title>output_loop&#45;&gt;exit</title>
<path fill="none" stroke="black" d="M492.201,-86.799C492.201,-75.1626 492.201,-59.5479 492.201,-46.2368"/>
<polygon fill="black" stroke="black" points="495.701,-46.1754 492.201,-36.1754 488.701,-46.1755 495.701,-46.1754"/>
<text text-anchor="middle" x="520.701" y="-57.8" font-family="Times,serif" font-size="14.00">finished</text>
</g>
<!-- output_mark_played -->
<g id="node14" class="node"><title>output_mark_played</title>
<ellipse fill="none" stroke="black" cx="349.201" cy="-192" rx="106.681" ry="18"/>
<text text-anchor="middle" x="349.201" y="-188.3" font-family="Times,serif" font-size="14.00">output_mark_played</text>
</g>
<!-- output_download&#45;&gt;output_mark_played -->
<g id="edge14" class="edge"><title>output_download&#45;&gt;output_mark_played</title>
<path fill="none" stroke="black" d="M432.965,-270.088C416.82,-255.23 393.078,-233.38 374.99,-216.734"/>
<polygon fill="black" stroke="black" points="377.351,-214.15 367.622,-209.953 372.61,-219.3 377.351,-214.15"/>
</g>
<!-- output_mark_played&#45;&gt;output_loop -->
<g id="edge15" class="edge"><title>output_mark_played&#45;&gt;output_loop</title>
<path fill="none" stroke="black" d="M376.772,-174.611C399.614,-161.034 432.221,-141.652 456.956,-126.949"/>
<polygon fill="black" stroke="black" points="458.873,-129.882 465.68,-121.764 455.296,-123.865 458.873,-129.882"/>
</g>
<!-- output_output&#45;&gt;exit -->
<g id="edge18" class="edge"><title>output_output&#45;&gt;exit</title>
<path fill="none" stroke="black" d="M687.398,-269.679C670.28,-228.187 621.836,-121.038 553.201,-54 544.841,-45.8352 534.207,-38.8836 524.167,-33.3792"/>
<polygon fill="black" stroke="black" points="525.686,-30.2243 515.196,-28.7377 522.469,-36.4415 525.686,-30.2243"/>
</g>
</g>
</svg>
