<?xml version="1.0" encoding="UTF-8" standalone="no"?>
<!DOCTYPE svg PUBLIC "-//W3C//DTD SVG 1.1//EN"
 "http://www.w3.org/Graphics/SVG/1.1/DTD/svg11.dtd">
<!-- Generated by graphviz version 2.38.0 (20140413.2041)
 -->
<!-- Title: %3 Pages: 1 -->
<svg width="1442pt" height="566pt"
 viewBox="0.00 0.00 1442.00 565.74" xmlns="http://www.w3.org/2000/svg" xmlns:xlink="http://www.w3.org/1999/xlink">
<g id="graph0" class="graph" transform="scale(1 1) rotate(0) translate(4 561.74)">
<title>%3</title>
<polygon fill="white" stroke="none" points="-4,4 -4,-561.74 1438,-561.74 1438,4 -4,4"/>
<g id="clust1" class="cluster"><title>cluster_0</title>
<polygon fill="none" stroke="black" points="8,-8 8,-348.74 172,-348.74 172,-8 8,-8"/>
<text text-anchor="middle" x="90" y="-333.54" font-family="Times,serif" font-size="14.00">check</text>
<text text-anchor="middle" x="90" y="-318.54" font-family="Times,serif" font-size="14.00">feeds</text>
</g>
<g id="clust2" class="cluster"><title>cluster_1</title>
<polygon fill="none" stroke="black" points="182,-8 182,-348.74 572,-348.74 572,-8 182,-8"/>
<text text-anchor="middle" x="377" y="-333.54" font-family="Times,serif" font-size="14.00">download</text>
<text text-anchor="middle" x="377" y="-318.54" font-family="Times,serif" font-size="14.00">items</text>
</g>
<g id="clust3" class="cluster"><title>cluster_2</title>
<polygon fill="none" stroke="black" points="580,-176.87 580,-348.74 736,-348.74 736,-176.87 580,-176.87"/>
<text text-anchor="middle" x="658" y="-333.54" font-family="Times,serif" font-size="14.00">import</text>
<text text-anchor="middle" x="658" y="-318.54" font-family="Times,serif" font-size="14.00">opml</text>
</g>
<g id="clust4" class="cluster"><title>cluster_3</title>
<polygon fill="none" stroke="black" points="744,-176.87 744,-348.74 898,-348.74 898,-176.87 744,-176.87"/>
<text text-anchor="middle" x="821" y="-333.54" font-family="Times,serif" font-size="14.00">export</text>
<text text-anchor="middle" x="821" y="-318.54" font-family="Times,serif" font-size="14.00">opml</text>
</g>
<g id="clust5" class="cluster"><title>cluster_4</title>
<polygon fill="none" stroke="black" points="906,-176.87 906,-348.74 1134,-348.74 1134,-176.87 906,-176.87"/>
<text text-anchor="middle" x="1020" y="-333.54" font-family="Times,serif" font-size="14.00">create</text>
<text text-anchor="middle" x="1020" y="-318.54" font-family="Times,serif" font-size="14.00">playlist</text>
</g>
<g id="clust6" class="cluster"><title>cluster_5</title>
<polygon fill="none" stroke="black" points="1142,-258.74 1142,-348.74 1274,-348.74 1274,-258.74 1142,-258.74"/>
<text text-anchor="middle" x="1208" y="-333.54" font-family="Times,serif" font-size="14.00">add</text>
<text text-anchor="middle" x="1208" y="-318.54" font-family="Times,serif" font-size="14.00">feed</text>
</g>
<g id="clust7" class="cluster"><title>cluster_6</title>
<polygon fill="none" stroke="black" points="1282,-258.74 1282,-348.74 1426,-348.74 1426,-258.74 1282,-258.74"/>
<text text-anchor="middle" x="1354" y="-333.54" font-family="Times,serif" font-size="14.00">delete</text>
<text text-anchor="middle" x="1354" y="-318.54" font-family="Times,serif" font-size="14.00">feed</text>
</g>
<!-- start -->
<g id="node1" class="node"><title>start</title>
<ellipse fill="none" stroke="black" cx="821" cy="-539.74" rx="33.2948" ry="18"/>
<text text-anchor="middle" x="821" y="-536.04" font-family="Times,serif" font-size="14.00">start</text>
</g>
<!-- load_config -->
<g id="node2" class="node"><title>load_config</title>
<ellipse fill="none" stroke="black" cx="821" cy="-466.74" rx="63.8893" ry="18"/>
<text text-anchor="middle" x="821" y="-463.04" font-family="Times,serif" font-size="14.00">load_config</text>
</g>
<!-- start&#45;&gt;load_config -->
<g id="edge1" class="edge"><title>start&#45;&gt;load_config</title>
<path fill="none" stroke="black" d="M821,-521.553C821,-513.53 821,-503.788 821,-494.809"/>
<polygon fill="black" stroke="black" points="824.5,-494.769 821,-484.769 817.5,-494.769 824.5,-494.769"/>
</g>
<!-- parse_args -->
<g id="node3" class="node"><title>parse_args</title>
<ellipse fill="none" stroke="black" cx="821" cy="-393.74" rx="61.99" ry="18"/>
<text text-anchor="middle" x="821" y="-390.04" font-family="Times,serif" font-size="14.00">parse_args</text>
</g>
<!-- load_config&#45;&gt;parse_args -->
<g id="edge2" class="edge"><title>load_config&#45;&gt;parse_args</title>
<path fill="none" stroke="black" d="M821,-448.553C821,-440.53 821,-430.788 821,-421.809"/>
<polygon fill="black" stroke="black" points="824.5,-421.769 821,-411.769 817.5,-421.769 824.5,-421.769"/>
</g>
<!-- check -->
<g id="node4" class="node"><title>check</title>
<ellipse fill="none" stroke="black" cx="108" cy="-284.74" rx="38.1938" ry="18"/>
<text text-anchor="middle" x="108" y="-281.04" font-family="Times,serif" font-size="14.00">check</text>
</g>
<!-- parse_args&#45;&gt;check -->
<g id="edge3" class="edge"><title>parse_args&#45;&gt;check</title>
<path fill="none" stroke="black" d="M759.799,-390.823C609.509,-385.793 230.677,-371.047 178,-348.74 158.115,-340.319 140.115,-323.818 127.349,-309.816"/>
<polygon fill="black" stroke="black" points="129.68,-307.164 120.463,-301.94 124.41,-311.772 129.68,-307.164"/>
</g>
<!-- get_latest_not_downloaded_item_urls -->
<g id="node5" class="node"><title>get_latest_not_downloaded_item_urls</title>
<ellipse fill="none" stroke="black" cx="377" cy="-284.74" rx="186.567" ry="18"/>
<text text-anchor="middle" x="377" y="-281.04" font-family="Times,serif" font-size="14.00">get_latest_not_downloaded_item_urls</text>
</g>
<!-- parse_args&#45;&gt;get_latest_not_downloaded_item_urls -->
<g id="edge4" class="edge"><title>parse_args&#45;&gt;get_latest_not_downloaded_item_urls</title>
<path fill="none" stroke="black" d="M766.567,-385.025C716.637,-377.462 640.82,-364.75 576,-348.74 526.923,-336.618 472.242,-319 432.637,-305.476"/>
<polygon fill="black" stroke="black" points="433.754,-302.159 423.16,-302.219 431.479,-308.779 433.754,-302.159"/>
</g>
<!-- get_latest_item_urls -->
<g id="node6" class="node"><title>get_latest_item_urls</title>
<ellipse fill="none" stroke="black" cx="1020" cy="-284.74" rx="105.881" ry="18"/>
<text text-anchor="middle" x="1020" y="-281.04" font-family="Times,serif" font-size="14.00">get_latest_item_urls</text>
</g>
<!-- parse_args&#45;&gt;get_latest_item_urls -->
<g id="edge5" class="edge"><title>parse_args&#45;&gt;get_latest_item_urls</title>
<path fill="none" stroke="black" d="M849.09,-377.637C883.507,-359.131 942.018,-327.67 980.839,-306.796"/>
<polygon fill="black" stroke="black" points="982.624,-309.811 989.774,-301.992 979.309,-303.646 982.624,-309.811"/>
</g>
<!-- import_opml -->
<g id="node7" class="node"><title>import_opml</title>
<ellipse fill="none" stroke="black" cx="658" cy="-284.74" rx="69.5877" ry="18"/>
<text text-anchor="middle" x="658" y="-281.04" font-family="Times,serif" font-size="14.00">import_opml</text>
</g>
<!-- parse_args&#45;&gt;import_opml -->
<g id="edge6" class="edge"><title>parse_args&#45;&gt;import_opml</title>
<path fill="none" stroke="black" d="M791.11,-377.94C775.533,-369.872 756.37,-359.38 740,-348.74 721.203,-336.523 701.233,-321.234 685.707,-308.777"/>
<polygon fill="black" stroke="black" points="687.547,-305.763 677.574,-302.186 683.139,-311.202 687.547,-305.763"/>
</g>
<!-- get_feeds -->
<g id="node8" class="node"><title>get_feeds</title>
<ellipse fill="none" stroke="black" cx="821" cy="-284.74" rx="55.7903" ry="18"/>
<text text-anchor="middle" x="821" y="-281.04" font-family="Times,serif" font-size="14.00">get_feeds</text>
</g>
<!-- parse_args&#45;&gt;get_feeds -->
<g id="edge7" class="edge"><title>parse_args&#45;&gt;get_feeds</title>
<path fill="none" stroke="black" d="M821,-375.549C821,-358.701 821,-332.758 821,-313.08"/>
<polygon fill="black" stroke="black" points="824.5,-312.889 821,-302.889 817.5,-312.889 824.5,-312.889"/>
</g>
<!-- add_feed2 -->
<g id="node9" class="node"><title>add_feed2</title>
<ellipse fill="none" stroke="black" cx="1208" cy="-284.74" rx="58.4896" ry="18"/>
<text text-anchor="middle" x="1208" y="-281.04" font-family="Times,serif" font-size="14.00">add_feed2</text>
</g>
<!-- parse_args&#45;&gt;add_feed2 -->
<g id="edge8" class="edge"><title>parse_args&#45;&gt;add_feed2</title>
<path fill="none" stroke="black" d="M880.529,-388.655C959.323,-382.536 1093.48,-369.449 1138,-348.74 1157.21,-339.806 1174.9,-323.776 1187.7,-310.123"/>
<polygon fill="black" stroke="black" points="1190.54,-312.199 1194.64,-302.43 1185.34,-307.51 1190.54,-312.199"/>
</g>
<!-- delete_feed -->
<g id="node10" class="node"><title>delete_feed</title>
<ellipse fill="none" stroke="black" cx="1354" cy="-284.74" rx="64.189" ry="18"/>
<text text-anchor="middle" x="1354" y="-281.04" font-family="Times,serif" font-size="14.00">delete_feed</text>
</g>
<!-- parse_args&#45;&gt;delete_feed -->
<g id="edge9" class="edge"><title>parse_args&#45;&gt;delete_feed</title>
<path fill="none" stroke="black" d="M882.522,-391.272C990.214,-387.968 1208.08,-377.813 1278,-348.74 1298.83,-340.079 1318.33,-323.67 1332.36,-309.769"/>
<polygon fill="black" stroke="black" points="1335.1,-311.976 1339.57,-302.37 1330.09,-307.091 1335.1,-311.976"/>
</g>
<!-- allupdated -->
<g id="node11" class="node"><title>allupdated</title>
<ellipse fill="none" stroke="black" cx="90" cy="-202.87" rx="73.5782" ry="26.7407"/>
<text text-anchor="middle" x="90" y="-206.67" font-family="Times,serif" font-size="14.00">Are they</text>
<text text-anchor="middle" x="90" y="-191.67" font-family="Times,serif" font-size="14.00">all updated?</text>
</g>
<!-- check&#45;&gt;allupdated -->
<g id="edge10" class="edge"><title>check&#45;&gt;allupdated</title>
<path fill="none" stroke="black" d="M104.183,-266.802C102.409,-258.933 100.229,-249.257 98.1139,-239.873"/>
<polygon fill="black" stroke="black" points="101.48,-238.891 95.8674,-229.905 94.6516,-240.43 101.48,-238.891"/>
</g>
<!-- loop -->
<g id="node14" class="node"><title>loop</title>
<ellipse fill="none" stroke="black" cx="425" cy="-202.87" rx="123.073" ry="26.7407"/>
<text text-anchor="middle" x="425" y="-206.67" font-family="Times,serif" font-size="14.00">Have you downloaded</text>
<text text-anchor="middle" x="425" y="-191.67" font-family="Times,serif" font-size="14.00">all new items?</text>
</g>
<!-- get_latest_not_downloaded_item_urls&#45;&gt;loop -->
<g id="edge14" class="edge"><title>get_latest_not_downloaded_item_urls&#45;&gt;loop</title>
<path fill="none" stroke="black" d="M387.415,-266.41C392.355,-258.19 398.44,-248.065 404.263,-238.375"/>
<polygon fill="black" stroke="black" points="407.346,-240.04 409.498,-229.665 401.346,-236.434 407.346,-240.04"/>
</g>
<!-- output_playlist -->
<g id="node19" class="node"><title>output_playlist</title>
<ellipse fill="none" stroke="black" cx="1001" cy="-202.87" rx="80.6858" ry="18"/>
<text text-anchor="middle" x="1001" y="-199.17" font-family="Times,serif" font-size="14.00">output_playlist</text>
</g>
<!-- get_latest_item_urls&#45;&gt;output_playlist -->
<g id="edge20" class="edge"><title>get_latest_item_urls&#45;&gt;output_playlist</title>
<path fill="none" stroke="black" d="M1015.88,-266.41C1013.4,-255.977 1010.18,-242.475 1007.38,-230.689"/>
<polygon fill="black" stroke="black" points="1010.77,-229.811 1005.05,-220.892 1003.96,-231.431 1010.77,-229.811"/>
</g>
<!-- add_feeds -->
<g id="node17" class="node"><title>add_feeds</title>
<ellipse fill="none" stroke="black" cx="667" cy="-202.87" rx="57.6901" ry="18"/>
<text text-anchor="middle" x="667" y="-199.17" font-family="Times,serif" font-size="14.00">add_feeds</text>
</g>
<!-- import_opml&#45;&gt;add_feeds -->
<g id="edge18" class="edge"><title>import_opml&#45;&gt;add_feeds</title>
<path fill="none" stroke="black" d="M659.953,-266.41C661.117,-256.082 662.619,-242.748 663.938,-231.046"/>
<polygon fill="black" stroke="black" points="667.44,-231.222 665.082,-220.892 660.484,-230.438 667.44,-231.222"/>
</g>
<!-- export_opml -->
<g id="node18" class="node"><title>export_opml</title>
<ellipse fill="none" stroke="black" cx="821" cy="-202.87" rx="68.7879" ry="18"/>
<text text-anchor="middle" x="821" y="-199.17" font-family="Times,serif" font-size="14.00">export_opml</text>
</g>
<!-- get_feeds&#45;&gt;export_opml -->
<g id="edge19" class="edge"><title>get_feeds&#45;&gt;export_opml</title>
<path fill="none" stroke="black" d="M821,-266.41C821,-256.082 821,-242.748 821,-231.046"/>
<polygon fill="black" stroke="black" points="824.5,-230.892 821,-220.892 817.5,-230.892 824.5,-230.892"/>
</g>
<!-- exit -->
<g id="node20" class="node"><title>exit</title>
<ellipse fill="none" stroke="black" cx="821" cy="-107" rx="28.6953" ry="18"/>
<text text-anchor="middle" x="821" y="-103.3" font-family="Times,serif" font-size="14.00">exit</text>
</g>
<!-- add_feed2&#45;&gt;exit -->
<g id="edge26" class="edge"><title>add_feed2&#45;&gt;exit</title>
<path fill="none" stroke="black" d="M1201.74,-266.508C1192.01,-242.296 1170.89,-198.643 1138,-176 1051.7,-116.586 923.31,-107.622 859.659,-107.154"/>
<polygon fill="black" stroke="black" points="859.652,-103.654 849.649,-107.148 859.647,-110.654 859.652,-103.654"/>
</g>
<!-- delete_feed&#45;&gt;exit -->
<g id="edge27" class="edge"><title>delete_feed&#45;&gt;exit</title>
<path fill="none" stroke="black" d="M1329.53,-267.988C1295.46,-246.291 1231.53,-206.438 1175,-176 1145.07,-159.883 1138.63,-152.53 1106,-143 1020.36,-117.989 915.175,-110.842 859.625,-108.806"/>
<polygon fill="black" stroke="black" points="859.632,-105.305 849.522,-108.473 859.401,-112.301 859.632,-105.305"/>
</g>
<!-- get_rss -->
<g id="node12" class="node"><title>get_rss</title>
<ellipse fill="none" stroke="black" cx="61" cy="-107" rx="44.6926" ry="18"/>
<text text-anchor="middle" x="61" y="-103.3" font-family="Times,serif" font-size="14.00">get_rss</text>
</g>
<!-- allupdated&#45;&gt;get_rss -->
<g id="edge11" class="edge"><title>allupdated&#45;&gt;get_rss</title>
<path fill="none" stroke="black" d="M81.9989,-175.971C78.0302,-163.125 73.2426,-147.628 69.2416,-134.677"/>
<polygon fill="black" stroke="black" points="72.5281,-133.458 66.2323,-124.936 65.84,-135.524 72.5281,-133.458"/>
<text text-anchor="middle" x="86" y="-146.8" font-family="Times,serif" font-size="14.00">no</text>
</g>
<!-- allupdated&#45;&gt;exit -->
<g id="edge23" class="edge"><title>allupdated&#45;&gt;exit</title>
<path fill="none" stroke="black" d="M109.322,-176.781C120.566,-164.214 135.882,-150.178 153,-143 196.383,-124.81 529.031,-127.628 576,-125 649.173,-120.905 734.537,-114.645 782.732,-110.974"/>
<polygon fill="black" stroke="black" points="783.017,-114.462 792.721,-110.209 782.483,-107.482 783.017,-114.462"/>
<text text-anchor="middle" x="165.5" y="-146.8" font-family="Times,serif" font-size="14.00">yes</text>
</g>
<!-- add_entry -->
<g id="node13" class="node"><title>add_entry</title>
<ellipse fill="none" stroke="black" cx="90" cy="-34" rx="57.6901" ry="18"/>
<text text-anchor="middle" x="90" y="-30.3" font-family="Times,serif" font-size="14.00">add_entry</text>
</g>
<!-- get_rss&#45;&gt;add_entry -->
<g id="edge12" class="edge"><title>get_rss&#45;&gt;add_entry</title>
<path fill="none" stroke="black" d="M67.8726,-89.174C71.2183,-80.9828 75.3214,-70.9374 79.0816,-61.7312"/>
<polygon fill="black" stroke="black" points="82.4341,-62.7795 82.9753,-52.1984 75.9538,-60.1325 82.4341,-62.7795"/>
</g>
<!-- add_entry&#45;&gt;allupdated -->
<g id="edge13" class="edge"><title>add_entry&#45;&gt;allupdated</title>
<path fill="none" stroke="black" d="M100.108,-51.8353C105.709,-62.1639 112.111,-75.8841 115,-89 120.754,-115.123 113.74,-144.638 105.694,-166.933"/>
<polygon fill="black" stroke="black" points="102.406,-165.732 102.092,-176.322 108.942,-168.24 102.406,-165.732"/>
</g>
<!-- download_item -->
<g id="node15" class="node"><title>download_item</title>
<ellipse fill="none" stroke="black" cx="375" cy="-107" rx="81.4863" ry="18"/>
<text text-anchor="middle" x="375" y="-103.3" font-family="Times,serif" font-size="14.00">download_item</text>
</g>
<!-- loop&#45;&gt;download_item -->
<g id="edge15" class="edge"><title>loop&#45;&gt;download_item</title>
<path fill="none" stroke="black" d="M411.205,-175.971C404.227,-162.871 395.78,-147.013 388.802,-133.911"/>
<polygon fill="black" stroke="black" points="391.812,-132.117 384.021,-124.936 385.633,-135.408 391.812,-132.117"/>
<text text-anchor="middle" x="411" y="-146.8" font-family="Times,serif" font-size="14.00">no</text>
</g>
<!-- loop&#45;&gt;exit -->
<g id="edge21" class="edge"><title>loop&#45;&gt;exit</title>
<path fill="none" stroke="black" d="M506.092,-182.648C591.402,-162.425 721.823,-131.509 784.664,-116.613"/>
<polygon fill="black" stroke="black" points="785.588,-119.991 794.511,-114.279 783.973,-113.18 785.588,-119.991"/>
<text text-anchor="middle" x="683.5" y="-146.8" font-family="Times,serif" font-size="14.00">yes</text>
</g>
<!-- mark_played -->
<g id="node16" class="node"><title>mark_played</title>
<ellipse fill="none" stroke="black" cx="450" cy="-34" rx="70.6878" ry="18"/>
<text text-anchor="middle" x="450" y="-30.3" font-family="Times,serif" font-size="14.00">mark_played</text>
</g>
<!-- download_item&#45;&gt;mark_played -->
<g id="edge16" class="edge"><title>download_item&#45;&gt;mark_played</title>
<path fill="none" stroke="black" d="M392.774,-89.174C402.464,-80.0006 414.611,-68.5015 425.218,-58.4602"/>
<polygon fill="black" stroke="black" points="427.756,-60.8768 432.612,-51.4603 422.944,-55.7934 427.756,-60.8768"/>
</g>
<!-- mark_played&#45;&gt;loop -->
<g id="edge17" class="edge"><title>mark_played&#45;&gt;loop</title>
<path fill="none" stroke="black" d="M456.929,-52.0731C463.376,-70.2904 471.135,-99.9194 465,-125 461.433,-139.581 454.57,-154.474 447.522,-167.22"/>
<polygon fill="black" stroke="black" points="444.372,-165.677 442.402,-176.087 450.434,-169.178 444.372,-165.677"/>
</g>
<!-- add_feeds&#45;&gt;exit -->
<g id="edge24" class="edge"><title>add_feeds&#45;&gt;exit</title>
<path fill="none" stroke="black" d="M692.086,-186.579C719.464,-169.891 763.234,-143.211 792.05,-125.647"/>
<polygon fill="black" stroke="black" points="794.123,-128.482 800.84,-120.288 790.48,-122.505 794.123,-128.482"/>
</g>
<!-- export_opml&#45;&gt;exit -->
<g id="edge25" class="edge"><title>export_opml&#45;&gt;exit</title>
<path fill="none" stroke="black" d="M821,-184.653C821,-170.891 821,-151.34 821,-135.427"/>
<polygon fill="black" stroke="black" points="824.5,-135.108 821,-125.108 817.5,-135.108 824.5,-135.108"/>
</g>
<!-- output_playlist&#45;&gt;exit -->
<g id="edge22" class="edge"><title>output_playlist&#45;&gt;exit</title>
<path fill="none" stroke="black" d="M970.872,-186.158C937.807,-168.915 885.009,-141.38 851.713,-124.017"/>
<polygon fill="black" stroke="black" points="852.945,-120.712 842.46,-119.192 849.709,-126.919 852.945,-120.712"/>
</g>
</g>
</svg>
