<?xml version="1.0" encoding="UTF-8" standalone="no"?>
<!DOCTYPE svg PUBLIC "-//W3C//DTD SVG 1.1//EN"
 "http://www.w3.org/Graphics/SVG/1.1/DTD/svg11.dtd">
<!-- Generated by graphviz version 2.38.0 (20140413.2041)
 -->
<!-- Title: %3 Pages: 1 -->
<svg width="978pt" height="566pt"
 viewBox="0.00 0.00 978.00 565.74" xmlns="http://www.w3.org/2000/svg" xmlns:xlink="http://www.w3.org/1999/xlink">
<g id="graph0" class="graph" transform="scale(1 1) rotate(0) translate(4 561.74)">
<title>%3</title>
<polygon fill="white" stroke="none" points="-4,4 -4,-561.74 974,-561.74 974,4 -4,4"/>
<g id="clust1" class="cluster"><title>cluster_0</title>
<polygon fill="none" stroke="black" points="170,-8 170,-348.74 334,-348.74 334,-8 170,-8"/>
<text text-anchor="middle" x="252" y="-333.54" font-family="Times,serif" font-size="14.00">update</text>
<text text-anchor="middle" x="252" y="-318.54" font-family="Times,serif" font-size="14.00">feeds</text>
</g>
<g id="clust2" class="cluster"><title>cluster_1</title>
<polygon fill="none" stroke="black" points="692,-8 692,-348.74 962,-348.74 962,-8 692,-8"/>
<text text-anchor="middle" x="827" y="-333.54" font-family="Times,serif" font-size="14.00">download</text>
<text text-anchor="middle" x="827" y="-318.54" font-family="Times,serif" font-size="14.00">files</text>
</g>
<g id="clust3" class="cluster"><title>cluster_2</title>
<polygon fill="none" stroke="black" points="342,-176.87 342,-348.74 498,-348.74 498,-176.87 342,-176.87"/>
<text text-anchor="middle" x="420" y="-333.54" font-family="Times,serif" font-size="14.00">import</text>
<text text-anchor="middle" x="420" y="-318.54" font-family="Times,serif" font-size="14.00">opml</text>
</g>
<g id="clust4" class="cluster"><title>cluster_3</title>
<polygon fill="none" stroke="black" points="8,-176.87 8,-348.74 162,-348.74 162,-176.87 8,-176.87"/>
<text text-anchor="middle" x="85" y="-333.54" font-family="Times,serif" font-size="14.00">export</text>
<text text-anchor="middle" x="85" y="-318.54" font-family="Times,serif" font-size="14.00">opml</text>
</g>
<g id="clust5" class="cluster"><title>cluster_4</title>
<polygon fill="none" stroke="black" points="506,-176.87 506,-348.74 684,-348.74 684,-176.87 506,-176.87"/>
<text text-anchor="middle" x="595" y="-333.54" font-family="Times,serif" font-size="14.00">create</text>
<text text-anchor="middle" x="595" y="-318.54" font-family="Times,serif" font-size="14.00">playlist</text>
</g>
<!-- start -->
<g id="node1" class="node"><title>start</title>
<ellipse fill="none" stroke="black" cx="420" cy="-539.74" rx="33.2948" ry="18"/>
<text text-anchor="middle" x="420" y="-536.04" font-family="Times,serif" font-size="14.00">start</text>
</g>
<!-- load_config -->
<g id="node2" class="node"><title>load_config</title>
<ellipse fill="none" stroke="black" cx="420" cy="-466.74" rx="63.8893" ry="18"/>
<text text-anchor="middle" x="420" y="-463.04" font-family="Times,serif" font-size="14.00">load_config</text>
</g>
<!-- start&#45;&gt;load_config -->
<g id="edge1" class="edge"><title>start&#45;&gt;load_config</title>
<path fill="none" stroke="black" d="M420,-521.553C420,-513.53 420,-503.788 420,-494.809"/>
<polygon fill="black" stroke="black" points="423.5,-494.769 420,-484.769 416.5,-494.769 423.5,-494.769"/>
</g>
<!-- parse_args -->
<g id="node3" class="node"><title>parse_args</title>
<ellipse fill="none" stroke="black" cx="420" cy="-393.74" rx="61.99" ry="18"/>
<text text-anchor="middle" x="420" y="-390.04" font-family="Times,serif" font-size="14.00">parse_args</text>
</g>
<!-- load_config&#45;&gt;parse_args -->
<g id="edge2" class="edge"><title>load_config&#45;&gt;parse_args</title>
<path fill="none" stroke="black" d="M420,-448.553C420,-440.53 420,-430.788 420,-421.809"/>
<polygon fill="black" stroke="black" points="423.5,-421.769 420,-411.769 416.5,-421.769 423.5,-421.769"/>
</g>
<!-- update -->
<g id="node4" class="node"><title>update</title>
<ellipse fill="none" stroke="black" cx="268" cy="-284.74" rx="42.7926" ry="18"/>
<text text-anchor="middle" x="268" y="-281.04" font-family="Times,serif" font-size="14.00">update</text>
</g>
<!-- parse_args&#45;&gt;update -->
<g id="edge3" class="edge"><title>parse_args&#45;&gt;update</title>
<path fill="none" stroke="black" d="M388.591,-378.119C372.87,-370.253 353.861,-359.889 338,-348.74 321.116,-336.873 303.863,-321.392 290.711,-308.746"/>
<polygon fill="black" stroke="black" points="293.073,-306.161 283.474,-301.676 288.182,-311.168 293.073,-306.161"/>
</g>
<!-- get_latest_unplayed_urls -->
<g id="node5" class="node"><title>get_latest_unplayed_urls</title>
<ellipse fill="none" stroke="black" cx="827" cy="-284.74" rx="127.277" ry="18"/>
<text text-anchor="middle" x="827" y="-281.04" font-family="Times,serif" font-size="14.00">get_latest_unplayed_urls</text>
</g>
<!-- parse_args&#45;&gt;get_latest_unplayed_urls -->
<g id="edge4" class="edge"><title>parse_args&#45;&gt;get_latest_unplayed_urls</title>
<path fill="none" stroke="black" d="M478.244,-387.633C533.215,-381.776 617.491,-370.099 688,-348.74 722.818,-338.193 760.274,-320.836 787.522,-307.008"/>
<polygon fill="black" stroke="black" points="789.421,-309.967 796.713,-302.281 786.22,-303.742 789.421,-309.967"/>
</g>
<!-- get_latest_urls -->
<g id="node6" class="node"><title>get_latest_urls</title>
<ellipse fill="none" stroke="black" cx="594" cy="-284.74" rx="79.8859" ry="18"/>
<text text-anchor="middle" x="594" y="-281.04" font-family="Times,serif" font-size="14.00">get_latest_urls</text>
</g>
<!-- parse_args&#45;&gt;get_latest_urls -->
<g id="edge5" class="edge"><title>parse_args&#45;&gt;get_latest_urls</title>
<path fill="none" stroke="black" d="M449.653,-377.814C465.429,-369.628 485.022,-359.067 502,-348.74 522.893,-336.032 545.569,-320.524 563.181,-308.075"/>
<polygon fill="black" stroke="black" points="565.27,-310.884 571.39,-302.235 561.212,-305.18 565.27,-310.884"/>
</g>
<!-- import_opml -->
<g id="node7" class="node"><title>import_opml</title>
<ellipse fill="none" stroke="black" cx="420" cy="-284.74" rx="69.5877" ry="18"/>
<text text-anchor="middle" x="420" y="-281.04" font-family="Times,serif" font-size="14.00">import_opml</text>
</g>
<!-- parse_args&#45;&gt;import_opml -->
<g id="edge6" class="edge"><title>parse_args&#45;&gt;import_opml</title>
<path fill="none" stroke="black" d="M420,-375.549C420,-358.701 420,-332.758 420,-313.08"/>
<polygon fill="black" stroke="black" points="423.5,-312.889 420,-302.889 416.5,-312.889 423.5,-312.889"/>
</g>
<!-- get_enties -->
<g id="node8" class="node"><title>get_enties</title>
<ellipse fill="none" stroke="black" cx="90" cy="-284.74" rx="59.2899" ry="18"/>
<text text-anchor="middle" x="90" y="-281.04" font-family="Times,serif" font-size="14.00">get_enties</text>
</g>
<!-- parse_args&#45;&gt;get_enties -->
<g id="edge7" class="edge"><title>parse_args&#45;&gt;get_enties</title>
<path fill="none" stroke="black" d="M358.889,-390.952C305.742,-387.385 227.781,-377.212 166,-348.74 145.644,-339.359 126.252,-323.121 112.151,-309.48"/>
<polygon fill="black" stroke="black" points="114.438,-306.818 104.889,-302.229 109.492,-311.772 114.438,-306.818"/>
</g>
<!-- allupdated -->
<g id="node9" class="node"><title>allupdated</title>
<ellipse fill="none" stroke="black" cx="252" cy="-202.87" rx="73.5782" ry="26.7407"/>
<text text-anchor="middle" x="252" y="-206.67" font-family="Times,serif" font-size="14.00">Are they</text>
<text text-anchor="middle" x="252" y="-191.67" font-family="Times,serif" font-size="14.00">all updated?</text>
</g>
<!-- update&#45;&gt;allupdated -->
<g id="edge8" class="edge"><title>update&#45;&gt;allupdated</title>
<path fill="none" stroke="black" d="M264.528,-266.41C262.962,-258.593 261.051,-249.053 259.198,-239.803"/>
<polygon fill="black" stroke="black" points="262.625,-239.092 257.229,-229.974 255.762,-240.467 262.625,-239.092"/>
</g>
<!-- loop -->
<g id="node12" class="node"><title>loop</title>
<ellipse fill="none" stroke="black" cx="824" cy="-202.87" rx="123.073" ry="26.7407"/>
<text text-anchor="middle" x="824" y="-206.67" font-family="Times,serif" font-size="14.00">Have you downloaded</text>
<text text-anchor="middle" x="824" y="-191.67" font-family="Times,serif" font-size="14.00">all new episodes?</text>
</g>
<!-- get_latest_unplayed_urls&#45;&gt;loop -->
<g id="edge12" class="edge"><title>get_latest_unplayed_urls&#45;&gt;loop</title>
<path fill="none" stroke="black" d="M826.349,-266.41C826.059,-258.676 825.705,-249.256 825.361,-240.098"/>
<polygon fill="black" stroke="black" points="828.853,-239.836 824.98,-229.974 821.858,-240.098 828.853,-239.836"/>
</g>
<!-- output_playlist -->
<g id="node17" class="node"><title>output_playlist</title>
<ellipse fill="none" stroke="black" cx="595" cy="-202.87" rx="80.6858" ry="18"/>
<text text-anchor="middle" x="595" y="-199.17" font-family="Times,serif" font-size="14.00">output_playlist</text>
</g>
<!-- get_latest_urls&#45;&gt;output_playlist -->
<g id="edge18" class="edge"><title>get_latest_urls&#45;&gt;output_playlist</title>
<path fill="none" stroke="black" d="M594.217,-266.41C594.346,-256.082 594.513,-242.748 594.66,-231.046"/>
<polygon fill="black" stroke="black" points="598.161,-230.936 594.787,-220.892 591.162,-230.848 598.161,-230.936"/>
</g>
<!-- add_enties -->
<g id="node15" class="node"><title>add_enties</title>
<ellipse fill="none" stroke="black" cx="420" cy="-202.87" rx="61.1893" ry="18"/>
<text text-anchor="middle" x="420" y="-199.17" font-family="Times,serif" font-size="14.00">add_enties</text>
</g>
<!-- import_opml&#45;&gt;add_enties -->
<g id="edge16" class="edge"><title>import_opml&#45;&gt;add_enties</title>
<path fill="none" stroke="black" d="M420,-266.41C420,-256.082 420,-242.748 420,-231.046"/>
<polygon fill="black" stroke="black" points="423.5,-230.892 420,-220.892 416.5,-230.892 423.5,-230.892"/>
</g>
<!-- export_opml -->
<g id="node16" class="node"><title>export_opml</title>
<ellipse fill="none" stroke="black" cx="85" cy="-202.87" rx="68.7879" ry="18"/>
<text text-anchor="middle" x="85" y="-199.17" font-family="Times,serif" font-size="14.00">export_opml</text>
</g>
<!-- get_enties&#45;&gt;export_opml -->
<g id="edge17" class="edge"><title>get_enties&#45;&gt;export_opml</title>
<path fill="none" stroke="black" d="M88.9151,-266.41C88.2686,-256.082 87.4338,-242.748 86.7013,-231.046"/>
<polygon fill="black" stroke="black" points="90.1837,-230.654 86.0656,-220.892 83.1974,-231.092 90.1837,-230.654"/>
</g>
<!-- get_rss -->
<g id="node10" class="node"><title>get_rss</title>
<ellipse fill="none" stroke="black" cx="229" cy="-107" rx="44.6926" ry="18"/>
<text text-anchor="middle" x="229" y="-103.3" font-family="Times,serif" font-size="14.00">get_rss</text>
</g>
<!-- allupdated&#45;&gt;get_rss -->
<g id="edge9" class="edge"><title>allupdated&#45;&gt;get_rss</title>
<path fill="none" stroke="black" d="M245.654,-175.971C242.507,-163.125 238.71,-147.628 235.536,-134.677"/>
<polygon fill="black" stroke="black" points="238.929,-133.816 233.15,-124.936 232.13,-135.482 238.929,-133.816"/>
<text text-anchor="middle" x="251" y="-146.8" font-family="Times,serif" font-size="14.00">no</text>
</g>
<!-- exit -->
<g id="node18" class="node"><title>exit</title>
<ellipse fill="none" stroke="black" cx="420" cy="-107" rx="28.6953" ry="18"/>
<text text-anchor="middle" x="420" y="-103.3" font-family="Times,serif" font-size="14.00">exit</text>
</g>
<!-- allupdated&#45;&gt;exit -->
<g id="edge21" class="edge"><title>allupdated&#45;&gt;exit</title>
<path fill="none" stroke="black" d="M291.389,-179.862C321.711,-162.919 362.96,-139.871 390.483,-124.493"/>
<polygon fill="black" stroke="black" points="392.233,-127.524 399.255,-119.591 388.818,-121.414 392.233,-127.524"/>
<text text-anchor="middle" x="368.5" y="-146.8" font-family="Times,serif" font-size="14.00">yes</text>
</g>
<!-- add_entry -->
<g id="node11" class="node"><title>add_entry</title>
<ellipse fill="none" stroke="black" cx="252" cy="-34" rx="57.6901" ry="18"/>
<text text-anchor="middle" x="252" y="-30.3" font-family="Times,serif" font-size="14.00">add_entry</text>
</g>
<!-- get_rss&#45;&gt;add_entry -->
<g id="edge10" class="edge"><title>get_rss&#45;&gt;add_entry</title>
<path fill="none" stroke="black" d="M234.568,-88.8129C237.195,-80.7023 240.391,-70.8355 243.326,-61.7766"/>
<polygon fill="black" stroke="black" points="246.731,-62.6208 246.484,-52.0288 240.072,-60.4635 246.731,-62.6208"/>
</g>
<!-- add_entry&#45;&gt;allupdated -->
<g id="edge11" class="edge"><title>add_entry&#45;&gt;allupdated</title>
<path fill="none" stroke="black" d="M264.826,-51.9727C271.685,-62.1303 279.435,-75.6303 283,-89 290.009,-115.287 281.209,-144.947 271.219,-167.264"/>
<polygon fill="black" stroke="black" points="268.033,-165.813 266.907,-176.348 274.357,-168.815 268.033,-165.813"/>
</g>
<!-- download_episode -->
<g id="node13" class="node"><title>download_episode</title>
<ellipse fill="none" stroke="black" cx="803" cy="-107" rx="95.5831" ry="18"/>
<text text-anchor="middle" x="803" y="-103.3" font-family="Times,serif" font-size="14.00">download_episode</text>
</g>
<!-- loop&#45;&gt;download_episode -->
<g id="edge13" class="edge"><title>loop&#45;&gt;download_episode</title>
<path fill="none" stroke="black" d="M818.206,-175.971C815.38,-163.337 811.98,-148.139 809.112,-135.32"/>
<polygon fill="black" stroke="black" points="812.451,-134.216 806.853,-125.221 805.62,-135.744 812.451,-134.216"/>
<text text-anchor="middle" x="823" y="-146.8" font-family="Times,serif" font-size="14.00">no</text>
</g>
<!-- loop&#45;&gt;exit -->
<g id="edge19" class="edge"><title>loop&#45;&gt;exit</title>
<path fill="none" stroke="black" d="M741.758,-182.761C654.559,-162.5 520.762,-131.412 456.682,-116.523"/>
<polygon fill="black" stroke="black" points="457.181,-113.046 446.649,-114.192 455.597,-119.864 457.181,-113.046"/>
<text text-anchor="middle" x="647.5" y="-146.8" font-family="Times,serif" font-size="14.00">yes</text>
</g>
<!-- mark_played -->
<g id="node14" class="node"><title>mark_played</title>
<ellipse fill="none" stroke="black" cx="863" cy="-34" rx="70.6878" ry="18"/>
<text text-anchor="middle" x="863" y="-30.3" font-family="Times,serif" font-size="14.00">mark_played</text>
</g>
<!-- download_episode&#45;&gt;mark_played -->
<g id="edge14" class="edge"><title>download_episode&#45;&gt;mark_played</title>
<path fill="none" stroke="black" d="M817.219,-89.174C824.691,-80.3318 833.99,-69.3289 842.251,-59.5535"/>
<polygon fill="black" stroke="black" points="845.102,-61.6023 848.883,-51.7052 839.755,-57.0841 845.102,-61.6023"/>
</g>
<!-- mark_played&#45;&gt;loop -->
<g id="edge15" class="edge"><title>mark_played&#45;&gt;loop</title>
<path fill="none" stroke="black" d="M881.978,-51.4477C891.783,-61.2347 902.765,-74.542 908,-89 913.447,-104.044 914.449,-110.357 908,-125 900.135,-142.86 885.844,-158.376 871.254,-170.7"/>
<polygon fill="black" stroke="black" points="868.755,-168.219 863.156,-177.214 873.142,-173.673 868.755,-168.219"/>
</g>
<!-- add_enties&#45;&gt;exit -->
<g id="edge22" class="edge"><title>add_enties&#45;&gt;exit</title>
<path fill="none" stroke="black" d="M420,-184.653C420,-170.891 420,-151.34 420,-135.427"/>
<polygon fill="black" stroke="black" points="423.5,-135.108 420,-125.108 416.5,-135.108 423.5,-135.108"/>
</g>
<!-- export_opml&#45;&gt;exit -->
<g id="edge23" class="edge"><title>export_opml&#45;&gt;exit</title>
<path fill="none" stroke="black" d="M102.028,-185.303C117.4,-171.445 141.33,-152.466 166,-143 237.761,-115.465 262.052,-136.816 338,-125 353.028,-122.662 369.467,-119.396 383.654,-116.351"/>
<polygon fill="black" stroke="black" points="384.513,-119.746 393.533,-114.189 383.016,-112.908 384.513,-119.746"/>
</g>
<!-- output_playlist&#45;&gt;exit -->
<g id="edge20" class="edge"><title>output_playlist&#45;&gt;exit</title>
<path fill="none" stroke="black" d="M565.314,-185.946C533.184,-168.712 482.231,-141.381 449.986,-124.084"/>
<polygon fill="black" stroke="black" points="451.486,-120.917 441.019,-119.275 448.177,-127.086 451.486,-120.917"/>
</g>
</g>
</svg>
