<?xml version="1.0" encoding="UTF-8" standalone="no"?>
<!DOCTYPE svg PUBLIC "-//W3C//DTD SVG 1.1//EN"
 "http://www.w3.org/Graphics/SVG/1.1/DTD/svg11.dtd">
<!-- Generated by graphviz version 2.38.0 (20140413.2041)
 -->
<!-- Title: %3 Pages: 1 -->
<svg width="710pt" height="457pt"
 viewBox="0.00 0.00 710.00 456.74" xmlns="http://www.w3.org/2000/svg" xmlns:xlink="http://www.w3.org/1999/xlink">
<g id="graph0" class="graph" transform="scale(1 1) rotate(0) translate(4 452.74)">
<title>%3</title>
<polygon fill="white" stroke="none" points="-4,4 -4,-452.74 706,-452.74 706,4 -4,4"/>
<g id="clust1" class="cluster"><title>cluster_0</title>
<polygon fill="none" stroke="black" points="8,-8 8,-310.74 172,-310.74 172,-8 8,-8"/>
</g>
<g id="clust2" class="cluster"><title>cluster_1</title>
<polygon fill="none" stroke="black" points="246,-8 246,-310.74 694,-310.74 694,-8 246,-8"/>
</g>
<!-- start -->
<g id="node1" class="node"><title>start</title>
<ellipse fill="none" stroke="black" cx="334" cy="-430.74" rx="33.2948" ry="18"/>
<text text-anchor="middle" x="334" y="-427.04" font-family="Times,serif" font-size="14.00">start</text>
</g>
<!-- load_config -->
<g id="node2" class="node"><title>load_config</title>
<ellipse fill="none" stroke="black" cx="334" cy="-357.74" rx="63.8893" ry="18"/>
<text text-anchor="middle" x="334" y="-354.04" font-family="Times,serif" font-size="14.00">load_config</text>
</g>
<!-- start&#45;&gt;load_config -->
<g id="edge1" class="edge"><title>start&#45;&gt;load_config</title>
<path fill="none" stroke="black" d="M334,-412.553C334,-404.53 334,-394.788 334,-385.809"/>
<polygon fill="black" stroke="black" points="337.5,-385.769 334,-375.769 330.5,-385.769 337.5,-385.769"/>
</g>
<!-- update -->
<g id="node3" class="node"><title>update</title>
<ellipse fill="none" stroke="black" cx="113" cy="-284.74" rx="42.7926" ry="18"/>
<text text-anchor="middle" x="113" y="-281.04" font-family="Times,serif" font-size="14.00">update</text>
</g>
<!-- load_config&#45;&gt;update -->
<g id="edge2" class="edge"><title>load_config&#45;&gt;update</title>
<path fill="none" stroke="black" d="M293.465,-343.718C254.407,-331.17 195.538,-312.257 155.751,-299.475"/>
<polygon fill="black" stroke="black" points="156.662,-296.091 146.071,-296.365 154.521,-302.756 156.662,-296.091"/>
</g>
<!-- get_latest_unplayed_urls -->
<g id="node4" class="node"><title>get_latest_unplayed_urls</title>
<ellipse fill="none" stroke="black" cx="559" cy="-284.74" rx="127.277" ry="18"/>
<text text-anchor="middle" x="559" y="-281.04" font-family="Times,serif" font-size="14.00">get_latest_unplayed_urls</text>
</g>
<!-- load_config&#45;&gt;get_latest_unplayed_urls -->
<g id="edge3" class="edge"><title>load_config&#45;&gt;get_latest_unplayed_urls</title>
<path fill="none" stroke="black" d="M374.746,-343.883C409.652,-332.868 460.377,-316.861 499.771,-304.43"/>
<polygon fill="black" stroke="black" points="501.043,-307.699 509.526,-301.352 498.936,-301.023 501.043,-307.699"/>
</g>
<!-- get_latest_urls -->
<g id="node5" class="node"><title>get_latest_urls</title>
<ellipse fill="none" stroke="black" cx="334" cy="-284.74" rx="79.8859" ry="18"/>
<text text-anchor="middle" x="334" y="-281.04" font-family="Times,serif" font-size="14.00">get_latest_urls</text>
</g>
<!-- load_config&#45;&gt;get_latest_urls -->
<g id="edge4" class="edge"><title>load_config&#45;&gt;get_latest_urls</title>
<path fill="none" stroke="black" d="M334,-339.553C334,-331.53 334,-321.788 334,-312.809"/>
<polygon fill="black" stroke="black" points="337.5,-312.769 334,-302.769 330.5,-312.769 337.5,-312.769"/>
</g>
<!-- allupdated -->
<g id="node6" class="node"><title>allupdated</title>
<ellipse fill="none" stroke="black" cx="90" cy="-202.87" rx="73.5782" ry="26.7407"/>
<text text-anchor="middle" x="90" y="-206.67" font-family="Times,serif" font-size="14.00">Are they</text>
<text text-anchor="middle" x="90" y="-191.67" font-family="Times,serif" font-size="14.00">all updated?</text>
</g>
<!-- update&#45;&gt;allupdated -->
<g id="edge5" class="edge"><title>update&#45;&gt;allupdated</title>
<path fill="none" stroke="black" d="M108.122,-266.802C105.832,-258.849 103.011,-249.051 100.282,-239.574"/>
<polygon fill="black" stroke="black" points="103.628,-238.546 97.4972,-229.905 96.9012,-240.483 103.628,-238.546"/>
</g>
<!-- loop -->
<g id="node9" class="node"><title>loop</title>
<ellipse fill="none" stroke="black" cx="557" cy="-202.87" rx="123.073" ry="26.7407"/>
<text text-anchor="middle" x="557" y="-206.67" font-family="Times,serif" font-size="14.00">Have you downloaded</text>
<text text-anchor="middle" x="557" y="-191.67" font-family="Times,serif" font-size="14.00">all new episodes?</text>
</g>
<!-- get_latest_unplayed_urls&#45;&gt;loop -->
<g id="edge9" class="edge"><title>get_latest_unplayed_urls&#45;&gt;loop</title>
<path fill="none" stroke="black" d="M558.566,-266.41C558.372,-258.676 558.136,-249.256 557.907,-240.098"/>
<polygon fill="black" stroke="black" points="561.403,-239.883 557.654,-229.974 554.405,-240.059 561.403,-239.883"/>
</g>
<!-- output_playlist -->
<g id="node12" class="node"><title>output_playlist</title>
<ellipse fill="none" stroke="black" cx="335" cy="-202.87" rx="80.6858" ry="18"/>
<text text-anchor="middle" x="335" y="-199.17" font-family="Times,serif" font-size="14.00">output_playlist</text>
</g>
<!-- get_latest_urls&#45;&gt;output_playlist -->
<g id="edge13" class="edge"><title>get_latest_urls&#45;&gt;output_playlist</title>
<path fill="none" stroke="black" d="M334.217,-266.41C334.346,-256.082 334.513,-242.748 334.66,-231.046"/>
<polygon fill="black" stroke="black" points="338.161,-230.936 334.787,-220.892 331.162,-230.848 338.161,-230.936"/>
</g>
<!-- get_rss -->
<g id="node7" class="node"><title>get_rss</title>
<ellipse fill="none" stroke="black" cx="104" cy="-107" rx="44.6926" ry="18"/>
<text text-anchor="middle" x="104" y="-103.3" font-family="Times,serif" font-size="14.00">get_rss</text>
</g>
<!-- allupdated&#45;&gt;get_rss -->
<g id="edge6" class="edge"><title>allupdated&#45;&gt;get_rss</title>
<path fill="none" stroke="black" d="M93.8626,-175.971C95.7469,-163.337 98.0136,-148.139 99.9254,-135.32"/>
<polygon fill="black" stroke="black" points="103.418,-135.628 101.432,-125.221 96.4946,-134.596 103.418,-135.628"/>
<text text-anchor="middle" x="108" y="-146.8" font-family="Times,serif" font-size="14.00">no</text>
</g>
<!-- exit -->
<g id="node13" class="node"><title>exit</title>
<ellipse fill="none" stroke="black" cx="209" cy="-107" rx="28.6953" ry="18"/>
<text text-anchor="middle" x="209" y="-103.3" font-family="Times,serif" font-size="14.00">exit</text>
</g>
<!-- allupdated&#45;&gt;exit -->
<g id="edge16" class="edge"><title>allupdated&#45;&gt;exit</title>
<path fill="none" stroke="black" d="M120.029,-178.183C139.733,-162.64 165.205,-142.546 183.842,-127.845"/>
<polygon fill="black" stroke="black" points="186.195,-130.447 191.879,-121.505 181.86,-124.951 186.195,-130.447"/>
<text text-anchor="middle" x="176.5" y="-146.8" font-family="Times,serif" font-size="14.00">yes</text>
</g>
<!-- add_entry -->
<g id="node8" class="node"><title>add_entry</title>
<ellipse fill="none" stroke="black" cx="81" cy="-34" rx="57.6901" ry="18"/>
<text text-anchor="middle" x="81" y="-30.3" font-family="Times,serif" font-size="14.00">add_entry</text>
</g>
<!-- get_rss&#45;&gt;add_entry -->
<g id="edge7" class="edge"><title>get_rss&#45;&gt;add_entry</title>
<path fill="none" stroke="black" d="M98.4323,-88.8129C95.805,-80.7023 92.6087,-70.8355 89.6741,-61.7766"/>
<polygon fill="black" stroke="black" points="92.9279,-60.4635 86.5164,-52.0288 86.2686,-62.6208 92.9279,-60.4635"/>
</g>
<!-- add_entry&#45;&gt;allupdated -->
<g id="edge8" class="edge"><title>add_entry&#45;&gt;allupdated</title>
<path fill="none" stroke="black" d="M68.1736,-51.9727C61.3148,-62.1303 53.5648,-75.6303 50,-89 45.8779,-104.46 46.1983,-109.458 50,-125 53.5955,-139.699 60.5409,-154.714 67.6485,-167.528"/>
<polygon fill="black" stroke="black" points="64.7661,-169.535 72.8071,-176.434 70.8232,-166.026 64.7661,-169.535"/>
</g>
<!-- download -->
<g id="node10" class="node"><title>download</title>
<ellipse fill="none" stroke="black" cx="606" cy="-107" rx="55.4913" ry="18"/>
<text text-anchor="middle" x="606" y="-103.3" font-family="Times,serif" font-size="14.00">download</text>
</g>
<!-- loop&#45;&gt;download -->
<g id="edge10" class="edge"><title>loop&#45;&gt;download</title>
<path fill="none" stroke="black" d="M570.519,-175.971C577.358,-162.871 585.635,-147.013 592.475,-133.911"/>
<polygon fill="black" stroke="black" points="595.634,-135.421 597.159,-124.936 589.429,-132.182 595.634,-135.421"/>
<text text-anchor="middle" x="596" y="-146.8" font-family="Times,serif" font-size="14.00">no</text>
</g>
<!-- loop&#45;&gt;exit -->
<g id="edge14" class="edge"><title>loop&#45;&gt;exit</title>
<path fill="none" stroke="black" d="M471.8,-183.46C393.536,-166.116 283.593,-140.538 242,-125 240.974,-124.617 239.938,-124.209 238.899,-123.783"/>
<polygon fill="black" stroke="black" points="240.162,-120.512 229.61,-119.558 237.263,-126.884 240.162,-120.512"/>
<text text-anchor="middle" x="368.5" y="-146.8" font-family="Times,serif" font-size="14.00">yes</text>
</g>
<!-- mark_played -->
<g id="node11" class="node"><title>mark_played</title>
<ellipse fill="none" stroke="black" cx="552" cy="-34" rx="70.6878" ry="18"/>
<text text-anchor="middle" x="552" y="-30.3" font-family="Times,serif" font-size="14.00">mark_played</text>
</g>
<!-- download&#45;&gt;mark_played -->
<g id="edge11" class="edge"><title>download&#45;&gt;mark_played</title>
<path fill="none" stroke="black" d="M593.203,-89.174C586.641,-80.5471 578.516,-69.8634 571.219,-60.2697"/>
<polygon fill="black" stroke="black" points="573.92,-58.0391 565.081,-52.1984 568.348,-62.2767 573.92,-58.0391"/>
</g>
<!-- mark_played&#45;&gt;loop -->
<g id="edge12" class="edge"><title>mark_played&#45;&gt;loop</title>
<path fill="none" stroke="black" d="M547.941,-52.3972C545.694,-62.9249 543.133,-76.6572 542,-89 540.537,-104.933 540.461,-109.074 542,-125 543.301,-138.456 545.853,-153.054 548.49,-165.878"/>
<polygon fill="black" stroke="black" points="545.082,-166.682 550.599,-175.727 551.927,-165.216 545.082,-166.682"/>
</g>
<!-- output_playlist&#45;&gt;exit -->
<g id="edge15" class="edge"><title>output_playlist&#45;&gt;exit</title>
<path fill="none" stroke="black" d="M313.052,-185.519C291.42,-169.403 258.351,-144.766 235.319,-127.607"/>
<polygon fill="black" stroke="black" points="237.138,-124.598 227.028,-121.431 232.956,-130.212 237.138,-124.598"/>
</g>
</g>
</svg>
