<?xml version="1.0" encoding="UTF-8" standalone="no"?>
<!DOCTYPE svg PUBLIC "-//W3C//DTD SVG 1.1//EN"
 "http://www.w3.org/Graphics/SVG/1.1/DTD/svg11.dtd">
<!-- Generated by graphviz version 2.38.0 (20140413.2041)
 -->
<!-- Title: %3 Pages: 1 -->
<svg width="1296pt" height="566pt"
 viewBox="0.00 0.00 1296.00 565.74" xmlns="http://www.w3.org/2000/svg" xmlns:xlink="http://www.w3.org/1999/xlink">
<g id="graph0" class="graph" transform="scale(1 1) rotate(0) translate(4 561.74)">
<title>%3</title>
<polygon fill="white" stroke="none" points="-4,4 -4,-561.74 1292,-561.74 1292,4 -4,4"/>
<g id="clust1" class="cluster"><title>cluster_0</title>
<polygon fill="none" stroke="black" points="8,-8 8,-348.74 172,-348.74 172,-8 8,-8"/>
<text text-anchor="middle" x="90" y="-333.54" font-family="Times,serif" font-size="14.00">update</text>
<text text-anchor="middle" x="90" y="-318.54" font-family="Times,serif" font-size="14.00">feeds</text>
</g>
<g id="clust2" class="cluster"><title>cluster_1</title>
<polygon fill="none" stroke="black" points="182,-8 182,-348.74 452,-348.74 452,-8 182,-8"/>
<text text-anchor="middle" x="317" y="-333.54" font-family="Times,serif" font-size="14.00">download</text>
<text text-anchor="middle" x="317" y="-318.54" font-family="Times,serif" font-size="14.00">files</text>
</g>
<g id="clust3" class="cluster"><title>cluster_2</title>
<polygon fill="none" stroke="black" points="460,-176.87 460,-348.74 616,-348.74 616,-176.87 460,-176.87"/>
<text text-anchor="middle" x="538" y="-333.54" font-family="Times,serif" font-size="14.00">import</text>
<text text-anchor="middle" x="538" y="-318.54" font-family="Times,serif" font-size="14.00">opml</text>
</g>
<g id="clust4" class="cluster"><title>cluster_3</title>
<polygon fill="none" stroke="black" points="624,-176.87 624,-348.74 778,-348.74 778,-176.87 624,-176.87"/>
<text text-anchor="middle" x="701" y="-333.54" font-family="Times,serif" font-size="14.00">export</text>
<text text-anchor="middle" x="701" y="-318.54" font-family="Times,serif" font-size="14.00">opml</text>
</g>
<g id="clust5" class="cluster"><title>cluster_4</title>
<polygon fill="none" stroke="black" points="786,-176.87 786,-348.74 964,-348.74 964,-176.87 786,-176.87"/>
<text text-anchor="middle" x="875" y="-333.54" font-family="Times,serif" font-size="14.00">create</text>
<text text-anchor="middle" x="875" y="-318.54" font-family="Times,serif" font-size="14.00">playlist</text>
</g>
<g id="clust6" class="cluster"><title>cluster_5</title>
<polygon fill="none" stroke="black" points="972,-258.74 972,-348.74 1116,-348.74 1116,-258.74 972,-258.74"/>
<text text-anchor="middle" x="1044" y="-333.54" font-family="Times,serif" font-size="14.00">add</text>
<text text-anchor="middle" x="1044" y="-318.54" font-family="Times,serif" font-size="14.00">feed</text>
</g>
<g id="clust7" class="cluster"><title>cluster_6</title>
<polygon fill="none" stroke="black" points="1124,-258.74 1124,-348.74 1280,-348.74 1280,-258.74 1124,-258.74"/>
<text text-anchor="middle" x="1202" y="-333.54" font-family="Times,serif" font-size="14.00">delete</text>
<text text-anchor="middle" x="1202" y="-318.54" font-family="Times,serif" font-size="14.00">feed</text>
</g>
<!-- start -->
<g id="node1" class="node"><title>start</title>
<ellipse fill="none" stroke="black" cx="701" cy="-539.74" rx="33.2948" ry="18"/>
<text text-anchor="middle" x="701" y="-536.04" font-family="Times,serif" font-size="14.00">start</text>
</g>
<!-- load_config -->
<g id="node2" class="node"><title>load_config</title>
<ellipse fill="none" stroke="black" cx="701" cy="-466.74" rx="63.8893" ry="18"/>
<text text-anchor="middle" x="701" y="-463.04" font-family="Times,serif" font-size="14.00">load_config</text>
</g>
<!-- start&#45;&gt;load_config -->
<g id="edge1" class="edge"><title>start&#45;&gt;load_config</title>
<path fill="none" stroke="black" d="M701,-521.553C701,-513.53 701,-503.788 701,-494.809"/>
<polygon fill="black" stroke="black" points="704.5,-494.769 701,-484.769 697.5,-494.769 704.5,-494.769"/>
</g>
<!-- parse_args -->
<g id="node3" class="node"><title>parse_args</title>
<ellipse fill="none" stroke="black" cx="701" cy="-393.74" rx="61.99" ry="18"/>
<text text-anchor="middle" x="701" y="-390.04" font-family="Times,serif" font-size="14.00">parse_args</text>
</g>
<!-- load_config&#45;&gt;parse_args -->
<g id="edge2" class="edge"><title>load_config&#45;&gt;parse_args</title>
<path fill="none" stroke="black" d="M701,-448.553C701,-440.53 701,-430.788 701,-421.809"/>
<polygon fill="black" stroke="black" points="704.5,-421.769 701,-411.769 697.5,-421.769 704.5,-421.769"/>
</g>
<!-- update -->
<g id="node4" class="node"><title>update</title>
<ellipse fill="none" stroke="black" cx="106" cy="-284.74" rx="42.7926" ry="18"/>
<text text-anchor="middle" x="106" y="-281.04" font-family="Times,serif" font-size="14.00">update</text>
</g>
<!-- parse_args&#45;&gt;update -->
<g id="edge3" class="edge"><title>parse_args&#45;&gt;update</title>
<path fill="none" stroke="black" d="M639.074,-392.336C519.091,-390.773 259.571,-383.361 178,-348.74 157.746,-340.144 139.175,-323.575 125.967,-309.586"/>
<polygon fill="black" stroke="black" points="128.522,-307.193 119.205,-302.147 123.342,-311.901 128.522,-307.193"/>
</g>
<!-- get_latest_unplayed_urls -->
<g id="node5" class="node"><title>get_latest_unplayed_urls</title>
<ellipse fill="none" stroke="black" cx="317" cy="-284.74" rx="127.277" ry="18"/>
<text text-anchor="middle" x="317" y="-281.04" font-family="Times,serif" font-size="14.00">get_latest_unplayed_urls</text>
</g>
<!-- parse_args&#45;&gt;get_latest_unplayed_urls -->
<g id="edge4" class="edge"><title>parse_args&#45;&gt;get_latest_unplayed_urls</title>
<path fill="none" stroke="black" d="M644.099,-386.58C593.825,-380.184 518.928,-368.318 456,-348.74 421.375,-337.968 384.044,-320.707 356.796,-306.975"/>
<polygon fill="black" stroke="black" points="358.098,-303.709 347.6,-302.281 354.916,-309.944 358.098,-303.709"/>
</g>
<!-- get_latest_urls -->
<g id="node6" class="node"><title>get_latest_urls</title>
<ellipse fill="none" stroke="black" cx="874" cy="-284.74" rx="79.8859" ry="18"/>
<text text-anchor="middle" x="874" y="-281.04" font-family="Times,serif" font-size="14.00">get_latest_urls</text>
</g>
<!-- parse_args&#45;&gt;get_latest_urls -->
<g id="edge5" class="edge"><title>parse_args&#45;&gt;get_latest_urls</title>
<path fill="none" stroke="black" d="M730.275,-377.77C745.854,-369.571 765.209,-359.012 782,-348.74 802.861,-335.978 825.536,-320.47 843.156,-308.034"/>
<polygon fill="black" stroke="black" points="845.242,-310.845 851.369,-302.201 841.189,-305.138 845.242,-310.845"/>
</g>
<!-- import_opml -->
<g id="node7" class="node"><title>import_opml</title>
<ellipse fill="none" stroke="black" cx="538" cy="-284.74" rx="69.5877" ry="18"/>
<text text-anchor="middle" x="538" y="-281.04" font-family="Times,serif" font-size="14.00">import_opml</text>
</g>
<!-- parse_args&#45;&gt;import_opml -->
<g id="edge6" class="edge"><title>parse_args&#45;&gt;import_opml</title>
<path fill="none" stroke="black" d="M671.11,-377.94C655.533,-369.872 636.37,-359.38 620,-348.74 601.203,-336.523 581.233,-321.234 565.707,-308.777"/>
<polygon fill="black" stroke="black" points="567.547,-305.763 557.574,-302.186 563.139,-311.202 567.547,-305.763"/>
</g>
<!-- get_enties -->
<g id="node8" class="node"><title>get_enties</title>
<ellipse fill="none" stroke="black" cx="701" cy="-284.74" rx="59.2899" ry="18"/>
<text text-anchor="middle" x="701" y="-281.04" font-family="Times,serif" font-size="14.00">get_enties</text>
</g>
<!-- parse_args&#45;&gt;get_enties -->
<g id="edge7" class="edge"><title>parse_args&#45;&gt;get_enties</title>
<path fill="none" stroke="black" d="M701,-375.549C701,-358.701 701,-332.758 701,-313.08"/>
<polygon fill="black" stroke="black" points="704.5,-312.889 701,-302.889 697.5,-312.889 704.5,-312.889"/>
</g>
<!-- add_entry2 -->
<g id="node9" class="node"><title>add_entry2</title>
<ellipse fill="none" stroke="black" cx="1044" cy="-284.74" rx="63.8893" ry="18"/>
<text text-anchor="middle" x="1044" y="-281.04" font-family="Times,serif" font-size="14.00">add_entry2</text>
</g>
<!-- parse_args&#45;&gt;add_entry2 -->
<g id="edge8" class="edge"><title>parse_args&#45;&gt;add_entry2</title>
<path fill="none" stroke="black" d="M762.488,-391.674C818.38,-388.641 901.956,-378.848 968,-348.74 988.394,-339.443 1007.79,-323.203 1021.88,-309.54"/>
<polygon fill="black" stroke="black" points="1024.54,-311.824 1029.13,-302.276 1019.59,-306.878 1024.54,-311.824"/>
</g>
<!-- delete_entry -->
<g id="node10" class="node"><title>delete_entry</title>
<ellipse fill="none" stroke="black" cx="1202" cy="-284.74" rx="69.5877" ry="18"/>
<text text-anchor="middle" x="1202" y="-281.04" font-family="Times,serif" font-size="14.00">delete_entry</text>
</g>
<!-- parse_args&#45;&gt;delete_entry -->
<g id="edge9" class="edge"><title>parse_args&#45;&gt;delete_entry</title>
<path fill="none" stroke="black" d="M762.067,-390.4C862.19,-385.888 1056.49,-374.098 1120,-348.74 1142.15,-339.897 1163.39,-323.267 1178.7,-309.313"/>
<polygon fill="black" stroke="black" points="1181.26,-311.716 1186.14,-302.315 1176.46,-306.617 1181.26,-311.716"/>
</g>
<!-- allupdated -->
<g id="node11" class="node"><title>allupdated</title>
<ellipse fill="none" stroke="black" cx="90" cy="-202.87" rx="73.5782" ry="26.7407"/>
<text text-anchor="middle" x="90" y="-206.67" font-family="Times,serif" font-size="14.00">Are they</text>
<text text-anchor="middle" x="90" y="-191.67" font-family="Times,serif" font-size="14.00">all updated?</text>
</g>
<!-- update&#45;&gt;allupdated -->
<g id="edge10" class="edge"><title>update&#45;&gt;allupdated</title>
<path fill="none" stroke="black" d="M102.528,-266.41C100.962,-258.593 99.0513,-249.053 97.1983,-239.803"/>
<polygon fill="black" stroke="black" points="100.625,-239.092 95.2293,-229.974 93.7618,-240.467 100.625,-239.092"/>
</g>
<!-- loop -->
<g id="node14" class="node"><title>loop</title>
<ellipse fill="none" stroke="black" cx="320" cy="-202.87" rx="123.073" ry="26.7407"/>
<text text-anchor="middle" x="320" y="-206.67" font-family="Times,serif" font-size="14.00">Have you downloaded</text>
<text text-anchor="middle" x="320" y="-191.67" font-family="Times,serif" font-size="14.00">all new episodes?</text>
</g>
<!-- get_latest_unplayed_urls&#45;&gt;loop -->
<g id="edge14" class="edge"><title>get_latest_unplayed_urls&#45;&gt;loop</title>
<path fill="none" stroke="black" d="M317.651,-266.41C317.941,-258.676 318.295,-249.256 318.639,-240.098"/>
<polygon fill="black" stroke="black" points="322.142,-240.098 319.02,-229.974 315.147,-239.836 322.142,-240.098"/>
</g>
<!-- output_playlist -->
<g id="node19" class="node"><title>output_playlist</title>
<ellipse fill="none" stroke="black" cx="875" cy="-202.87" rx="80.6858" ry="18"/>
<text text-anchor="middle" x="875" y="-199.17" font-family="Times,serif" font-size="14.00">output_playlist</text>
</g>
<!-- get_latest_urls&#45;&gt;output_playlist -->
<g id="edge20" class="edge"><title>get_latest_urls&#45;&gt;output_playlist</title>
<path fill="none" stroke="black" d="M874.217,-266.41C874.346,-256.082 874.513,-242.748 874.66,-231.046"/>
<polygon fill="black" stroke="black" points="878.161,-230.936 874.787,-220.892 871.162,-230.848 878.161,-230.936"/>
</g>
<!-- add_enties -->
<g id="node17" class="node"><title>add_enties</title>
<ellipse fill="none" stroke="black" cx="545" cy="-202.87" rx="61.1893" ry="18"/>
<text text-anchor="middle" x="545" y="-199.17" font-family="Times,serif" font-size="14.00">add_enties</text>
</g>
<!-- import_opml&#45;&gt;add_enties -->
<g id="edge18" class="edge"><title>import_opml&#45;&gt;add_enties</title>
<path fill="none" stroke="black" d="M539.519,-266.41C540.424,-256.082 541.593,-242.748 542.618,-231.046"/>
<polygon fill="black" stroke="black" points="546.122,-231.16 543.508,-220.892 539.148,-230.549 546.122,-231.16"/>
</g>
<!-- export_opml -->
<g id="node18" class="node"><title>export_opml</title>
<ellipse fill="none" stroke="black" cx="701" cy="-202.87" rx="68.7879" ry="18"/>
<text text-anchor="middle" x="701" y="-199.17" font-family="Times,serif" font-size="14.00">export_opml</text>
</g>
<!-- get_enties&#45;&gt;export_opml -->
<g id="edge19" class="edge"><title>get_enties&#45;&gt;export_opml</title>
<path fill="none" stroke="black" d="M701,-266.41C701,-256.082 701,-242.748 701,-231.046"/>
<polygon fill="black" stroke="black" points="704.5,-230.892 701,-220.892 697.5,-230.892 704.5,-230.892"/>
</g>
<!-- exit -->
<g id="node20" class="node"><title>exit</title>
<ellipse fill="none" stroke="black" cx="701" cy="-107" rx="28.6953" ry="18"/>
<text text-anchor="middle" x="701" y="-103.3" font-family="Times,serif" font-size="14.00">exit</text>
</g>
<!-- add_entry2&#45;&gt;exit -->
<g id="edge26" class="edge"><title>add_entry2&#45;&gt;exit</title>
<path fill="none" stroke="black" d="M1036.67,-266.668C1025.46,-242.652 1001.75,-199.234 968,-176 897.487,-127.457 795.075,-113.552 739.825,-109.58"/>
<polygon fill="black" stroke="black" points="739.957,-106.081 729.752,-108.929 739.505,-113.067 739.957,-106.081"/>
</g>
<!-- delete_entry&#45;&gt;exit -->
<g id="edge27" class="edge"><title>delete_entry&#45;&gt;exit</title>
<path fill="none" stroke="black" d="M1179.05,-267.65C1134.43,-237.311 1031.86,-172.091 935,-143 867.886,-122.842 786.305,-114.008 739.343,-110.357"/>
<polygon fill="black" stroke="black" points="739.534,-106.861 729.303,-109.614 739.018,-113.842 739.534,-106.861"/>
</g>
<!-- get_rss -->
<g id="node12" class="node"><title>get_rss</title>
<ellipse fill="none" stroke="black" cx="61" cy="-107" rx="44.6926" ry="18"/>
<text text-anchor="middle" x="61" y="-103.3" font-family="Times,serif" font-size="14.00">get_rss</text>
</g>
<!-- allupdated&#45;&gt;get_rss -->
<g id="edge11" class="edge"><title>allupdated&#45;&gt;get_rss</title>
<path fill="none" stroke="black" d="M81.9989,-175.971C78.0302,-163.125 73.2426,-147.628 69.2416,-134.677"/>
<polygon fill="black" stroke="black" points="72.5281,-133.458 66.2323,-124.936 65.84,-135.524 72.5281,-133.458"/>
<text text-anchor="middle" x="86" y="-146.8" font-family="Times,serif" font-size="14.00">no</text>
</g>
<!-- allupdated&#45;&gt;exit -->
<g id="edge23" class="edge"><title>allupdated&#45;&gt;exit</title>
<path fill="none" stroke="black" d="M109.371,-176.895C120.628,-164.362 135.943,-150.321 153,-143 214.984,-116.396 388.687,-129.335 456,-125 529.136,-120.29 614.512,-114.241 662.72,-110.774"/>
<polygon fill="black" stroke="black" points="662.989,-114.264 672.712,-110.055 662.486,-107.282 662.989,-114.264"/>
<text text-anchor="middle" x="165.5" y="-146.8" font-family="Times,serif" font-size="14.00">yes</text>
</g>
<!-- add_entry -->
<g id="node13" class="node"><title>add_entry</title>
<ellipse fill="none" stroke="black" cx="90" cy="-34" rx="57.6901" ry="18"/>
<text text-anchor="middle" x="90" y="-30.3" font-family="Times,serif" font-size="14.00">add_entry</text>
</g>
<!-- get_rss&#45;&gt;add_entry -->
<g id="edge12" class="edge"><title>get_rss&#45;&gt;add_entry</title>
<path fill="none" stroke="black" d="M67.8726,-89.174C71.2183,-80.9828 75.3214,-70.9374 79.0816,-61.7312"/>
<polygon fill="black" stroke="black" points="82.4341,-62.7795 82.9753,-52.1984 75.9538,-60.1325 82.4341,-62.7795"/>
</g>
<!-- add_entry&#45;&gt;allupdated -->
<g id="edge13" class="edge"><title>add_entry&#45;&gt;allupdated</title>
<path fill="none" stroke="black" d="M100.108,-51.8353C105.709,-62.1639 112.111,-75.8841 115,-89 120.754,-115.123 113.74,-144.638 105.694,-166.933"/>
<polygon fill="black" stroke="black" points="102.406,-165.732 102.092,-176.322 108.942,-168.24 102.406,-165.732"/>
</g>
<!-- download_episode -->
<g id="node15" class="node"><title>download_episode</title>
<ellipse fill="none" stroke="black" cx="294" cy="-107" rx="95.5831" ry="18"/>
<text text-anchor="middle" x="294" y="-103.3" font-family="Times,serif" font-size="14.00">download_episode</text>
</g>
<!-- loop&#45;&gt;download_episode -->
<g id="edge15" class="edge"><title>loop&#45;&gt;download_episode</title>
<path fill="none" stroke="black" d="M312.827,-175.971C309.292,-163.211 305.033,-147.835 301.461,-134.937"/>
<polygon fill="black" stroke="black" points="304.812,-133.924 298.77,-125.221 298.066,-135.793 304.812,-133.924"/>
<text text-anchor="middle" x="317" y="-146.8" font-family="Times,serif" font-size="14.00">no</text>
</g>
<!-- loop&#45;&gt;exit -->
<g id="edge21" class="edge"><title>loop&#45;&gt;exit</title>
<path fill="none" stroke="black" d="M399.406,-182.306C481.046,-162.192 604.527,-131.769 665.024,-116.864"/>
<polygon fill="black" stroke="black" points="665.999,-120.228 674.871,-114.438 664.324,-113.432 665.999,-120.228"/>
<text text-anchor="middle" x="568.5" y="-146.8" font-family="Times,serif" font-size="14.00">yes</text>
</g>
<!-- mark_played -->
<g id="node16" class="node"><title>mark_played</title>
<ellipse fill="none" stroke="black" cx="353" cy="-34" rx="70.6878" ry="18"/>
<text text-anchor="middle" x="353" y="-30.3" font-family="Times,serif" font-size="14.00">mark_played</text>
</g>
<!-- download_episode&#45;&gt;mark_played -->
<g id="edge16" class="edge"><title>download_episode&#45;&gt;mark_played</title>
<path fill="none" stroke="black" d="M307.982,-89.174C315.33,-80.3318 324.473,-69.3289 332.596,-59.5535"/>
<polygon fill="black" stroke="black" points="335.419,-61.6333 339.118,-51.7052 330.035,-57.1594 335.419,-61.6333"/>
</g>
<!-- mark_played&#45;&gt;loop -->
<g id="edge17" class="edge"><title>mark_played&#45;&gt;loop</title>
<path fill="none" stroke="black" d="M372.391,-51.3675C382.411,-61.1293 393.639,-74.4383 399,-89 404.528,-104.015 405.224,-110.26 399,-125 391.589,-142.552 377.993,-158.079 364.144,-170.501"/>
<polygon fill="black" stroke="black" points="361.784,-167.914 356.462,-177.075 366.335,-173.232 361.784,-167.914"/>
</g>
<!-- add_enties&#45;&gt;exit -->
<g id="edge24" class="edge"><title>add_enties&#45;&gt;exit</title>
<path fill="none" stroke="black" d="M570.76,-186.369C598.56,-169.641 642.744,-143.054 671.81,-125.565"/>
<polygon fill="black" stroke="black" points="673.912,-128.385 680.676,-120.23 670.303,-122.387 673.912,-128.385"/>
</g>
<!-- export_opml&#45;&gt;exit -->
<g id="edge25" class="edge"><title>export_opml&#45;&gt;exit</title>
<path fill="none" stroke="black" d="M701,-184.653C701,-170.891 701,-151.34 701,-135.427"/>
<polygon fill="black" stroke="black" points="704.5,-135.108 701,-125.108 697.5,-135.108 704.5,-135.108"/>
</g>
<!-- output_playlist&#45;&gt;exit -->
<g id="edge22" class="edge"><title>output_playlist&#45;&gt;exit</title>
<path fill="none" stroke="black" d="M845.483,-185.946C813.626,-168.76 763.155,-141.532 731.08,-124.228"/>
<polygon fill="black" stroke="black" points="732.618,-121.08 722.155,-119.413 729.294,-127.241 732.618,-121.08"/>
</g>
</g>
</svg>
