<?xml version="1.0" encoding="UTF-8" standalone="no"?>
<!DOCTYPE svg PUBLIC "-//W3C//DTD SVG 1.1//EN"
 "http://www.w3.org/Graphics/SVG/1.1/DTD/svg11.dtd">
<!-- Generated by graphviz version 2.38.0 (20140413.2041)
 -->
<!-- Title: %3 Pages: 1 -->
<svg width="584pt" height="496pt"
 viewBox="0.00 0.00 583.79 496.00" xmlns="http://www.w3.org/2000/svg" xmlns:xlink="http://www.w3.org/1999/xlink">
<g id="graph0" class="graph" transform="scale(1 1) rotate(0) translate(4 492)">
<title>%3</title>
<polygon fill="white" stroke="none" points="-4,4 -4,-492 579.787,-492 579.787,4 -4,4"/>
<!-- start -->
<g id="node1" class="node"><title>start</title>
<ellipse fill="none" stroke="black" cx="216.943" cy="-470" rx="33.2948" ry="18"/>
<text text-anchor="middle" x="216.943" y="-466.3" font-family="Times,serif" font-size="14.00">start</text>
</g>
<!-- load_config -->
<g id="node2" class="node"><title>load_config</title>
<ellipse fill="none" stroke="black" cx="216.943" cy="-397" rx="63.8893" ry="18"/>
<text text-anchor="middle" x="216.943" y="-393.3" font-family="Times,serif" font-size="14.00">load_config</text>
</g>
<!-- start&#45;&gt;load_config -->
<g id="edge1" class="edge"><title>start&#45;&gt;load_config</title>
<path fill="none" stroke="black" d="M216.943,-451.813C216.943,-443.789 216.943,-434.047 216.943,-425.069"/>
<polygon fill="black" stroke="black" points="220.443,-425.029 216.943,-415.029 213.443,-425.029 220.443,-425.029"/>
</g>
<!-- get_latest_urls -->
<g id="node3" class="node"><title>get_latest_urls</title>
<ellipse fill="none" stroke="black" cx="79.9429" cy="-324" rx="79.8859" ry="18"/>
<text text-anchor="middle" x="79.9429" y="-320.3" font-family="Times,serif" font-size="14.00">get_latest_urls</text>
</g>
<!-- load_config&#45;&gt;get_latest_urls -->
<g id="edge2" class="edge"><title>load_config&#45;&gt;get_latest_urls</title>
<path fill="none" stroke="black" d="M187.889,-380.943C167.958,-370.614 141.269,-356.782 119.415,-345.457"/>
<polygon fill="black" stroke="black" points="120.869,-342.268 110.38,-340.774 117.648,-348.483 120.869,-342.268"/>
</g>
<!-- get_latest_unplayed_urls -->
<g id="node4" class="node"><title>get_latest_unplayed_urls</title>
<ellipse fill="none" stroke="black" cx="304.943" cy="-324" rx="127.277" ry="18"/>
<text text-anchor="middle" x="304.943" y="-320.3" font-family="Times,serif" font-size="14.00">get_latest_unplayed_urls</text>
</g>
<!-- load_config&#45;&gt;get_latest_unplayed_urls -->
<g id="edge3" class="edge"><title>load_config&#45;&gt;get_latest_unplayed_urls</title>
<path fill="none" stroke="black" d="M236.911,-379.889C248.476,-370.559 263.235,-358.651 276.049,-348.312"/>
<polygon fill="black" stroke="black" points="278.55,-350.791 284.135,-341.788 274.155,-345.343 278.55,-350.791"/>
</g>
<!-- output -->
<g id="node9" class="node"><title>output</title>
<ellipse fill="none" stroke="black" cx="137.943" cy="-251" rx="41.6928" ry="18"/>
<text text-anchor="middle" x="137.943" y="-247.3" font-family="Times,serif" font-size="14.00">output</text>
</g>
<!-- get_latest_urls&#45;&gt;output -->
<g id="edge9" class="edge"><title>get_latest_urls&#45;&gt;output</title>
<path fill="none" stroke="black" d="M93.6881,-306.174C101.016,-297.204 110.16,-286.01 118.232,-276.129"/>
<polygon fill="black" stroke="black" points="121.08,-278.175 124.696,-268.217 115.659,-273.747 121.08,-278.175"/>
</g>
<!-- loop -->
<g id="node5" class="node"><title>loop</title>
<ellipse fill="none" stroke="black" cx="307.943" cy="-105" rx="30.5947" ry="18"/>
<text text-anchor="middle" x="307.943" y="-101.3" font-family="Times,serif" font-size="14.00">loop</text>
</g>
<!-- get_latest_unplayed_urls&#45;&gt;loop -->
<g id="edge4" class="edge"><title>get_latest_unplayed_urls&#45;&gt;loop</title>
<path fill="none" stroke="black" d="M305.178,-305.972C305.696,-268.511 306.938,-178.676 307.566,-133.264"/>
<polygon fill="black" stroke="black" points="311.066,-133.296 307.704,-123.249 304.066,-133.199 311.066,-133.296"/>
</g>
<!-- download -->
<g id="node6" class="node"><title>download</title>
<ellipse fill="none" stroke="black" cx="401.943" cy="-251" rx="55.4913" ry="18"/>
<text text-anchor="middle" x="401.943" y="-247.3" font-family="Times,serif" font-size="14.00">download</text>
</g>
<!-- loop&#45;&gt;download -->
<g id="edge5" class="edge"><title>loop&#45;&gt;download</title>
<path fill="none" stroke="black" d="M311.281,-123.113C315.592,-142.16 324.446,-173.248 339.943,-196 348.203,-208.128 359.827,-219.223 370.78,-228.159"/>
<polygon fill="black" stroke="black" points="368.926,-231.151 378.959,-234.553 373.237,-225.637 368.926,-231.151"/>
<text text-anchor="middle" x="382.443" y="-174.3" font-family="Times,serif" font-size="14.00">not finished</text>
</g>
<!-- exit -->
<g id="node8" class="node"><title>exit</title>
<ellipse fill="none" stroke="black" cx="199.943" cy="-18" rx="28.6953" ry="18"/>
<text text-anchor="middle" x="199.943" y="-14.3" font-family="Times,serif" font-size="14.00">exit</text>
</g>
<!-- loop&#45;&gt;exit -->
<g id="edge8" class="edge"><title>loop&#45;&gt;exit</title>
<path fill="none" stroke="black" d="M290.109,-89.964C272.39,-76.0185 245.056,-54.5057 225.127,-38.821"/>
<polygon fill="black" stroke="black" points="227.112,-35.9292 217.089,-32.4949 222.783,-41.4299 227.112,-35.9292"/>
<text text-anchor="middle" x="289.443" y="-57.8" font-family="Times,serif" font-size="14.00">finished</text>
</g>
<!-- mark_played -->
<g id="node7" class="node"><title>mark_played</title>
<ellipse fill="none" stroke="black" cx="504.943" cy="-178" rx="70.6878" ry="18"/>
<text text-anchor="middle" x="504.943" y="-174.3" font-family="Times,serif" font-size="14.00">mark_played</text>
</g>
<!-- download&#45;&gt;mark_played -->
<g id="edge6" class="edge"><title>download&#45;&gt;mark_played</title>
<path fill="none" stroke="black" d="M424.547,-234.419C438.837,-224.568 457.516,-211.693 473.272,-200.832"/>
<polygon fill="black" stroke="black" points="475.431,-203.594 481.678,-195.037 471.458,-197.831 475.431,-203.594"/>
</g>
<!-- mark_played&#45;&gt;loop -->
<g id="edge7" class="edge"><title>mark_played&#45;&gt;loop</title>
<path fill="none" stroke="black" d="M465.55,-162.803C429.782,-149.911 377.511,-131.073 343.12,-118.678"/>
<polygon fill="black" stroke="black" points="344.085,-115.305 333.491,-115.208 341.711,-121.891 344.085,-115.305"/>
</g>
<!-- output&#45;&gt;exit -->
<g id="edge10" class="edge"><title>output&#45;&gt;exit</title>
<path fill="none" stroke="black" d="M142.502,-233.014C153.184,-193.215 179.898,-93.6844 192.777,-45.6975"/>
<polygon fill="black" stroke="black" points="196.165,-46.5764 195.377,-36.0109 189.405,-44.7617 196.165,-46.5764"/>
</g>
</g>
</svg>
