<?xml version="1.0" encoding="UTF-8" standalone="no"?>
<!DOCTYPE svg PUBLIC "-//W3C//DTD SVG 1.1//EN"
 "http://www.w3.org/Graphics/SVG/1.1/DTD/svg11.dtd">
<!-- Generated by graphviz version 2.38.0 (20140413.2041)
 -->
<!-- Title: %3 Pages: 1 -->
<svg width="233pt" height="441pt"
 viewBox="0.00 0.00 233.44 440.74" xmlns="http://www.w3.org/2000/svg" xmlns:xlink="http://www.w3.org/1999/xlink">
<g id="graph0" class="graph" transform="scale(1 1) rotate(0) translate(4 436.74)">
<title>%3</title>
<polygon fill="white" stroke="none" points="-4,4 -4,-436.74 229.442,-436.74 229.442,4 -4,4"/>
<!-- start -->
<g id="node1" class="node"><title>start</title>
<ellipse fill="none" stroke="black" cx="119.597" cy="-414.74" rx="33.2948" ry="18"/>
<text text-anchor="middle" x="119.597" y="-411.04" font-family="Times,serif" font-size="14.00">start</text>
</g>
<!-- load_config -->
<g id="node2" class="node"><title>load_config</title>
<ellipse fill="none" stroke="black" cx="119.597" cy="-341.74" rx="63.8893" ry="18"/>
<text text-anchor="middle" x="119.597" y="-338.04" font-family="Times,serif" font-size="14.00">load_config</text>
</g>
<!-- start&#45;&gt;load_config -->
<g id="edge1" class="edge"><title>start&#45;&gt;load_config</title>
<path fill="none" stroke="black" d="M119.597,-396.553C119.597,-388.53 119.597,-378.788 119.597,-369.809"/>
<polygon fill="black" stroke="black" points="123.098,-369.769 119.597,-359.769 116.098,-369.769 123.098,-369.769"/>
</g>
<!-- update -->
<g id="node3" class="node"><title>update</title>
<ellipse fill="none" stroke="black" cx="119.597" cy="-268.74" rx="42.7926" ry="18"/>
<text text-anchor="middle" x="119.597" y="-265.04" font-family="Times,serif" font-size="14.00">update</text>
</g>
<!-- load_config&#45;&gt;update -->
<g id="edge2" class="edge"><title>load_config&#45;&gt;update</title>
<path fill="none" stroke="black" d="M119.597,-323.553C119.597,-315.53 119.597,-305.788 119.597,-296.809"/>
<polygon fill="black" stroke="black" points="123.098,-296.769 119.597,-286.769 116.098,-296.769 123.098,-296.769"/>
</g>
<!-- allupdated -->
<g id="node4" class="node"><title>allupdated</title>
<ellipse fill="none" stroke="black" cx="119.597" cy="-186.87" rx="73.5782" ry="26.7407"/>
<text text-anchor="middle" x="119.597" y="-190.67" font-family="Times,serif" font-size="14.00">Are they</text>
<text text-anchor="middle" x="119.597" y="-175.67" font-family="Times,serif" font-size="14.00">all updated?</text>
</g>
<!-- update&#45;&gt;allupdated -->
<g id="edge3" class="edge"><title>update&#45;&gt;allupdated</title>
<path fill="none" stroke="black" d="M119.597,-250.41C119.597,-242.676 119.597,-233.256 119.597,-224.098"/>
<polygon fill="black" stroke="black" points="123.098,-223.974 119.597,-213.974 116.098,-223.974 123.098,-223.974"/>
</g>
<!-- exit -->
<g id="node5" class="node"><title>exit</title>
<ellipse fill="none" stroke="black" cx="28.5975" cy="-91" rx="28.6953" ry="18"/>
<text text-anchor="middle" x="28.5975" y="-87.3" font-family="Times,serif" font-size="14.00">exit</text>
</g>
<!-- allupdated&#45;&gt;exit -->
<g id="edge4" class="edge"><title>allupdated&#45;&gt;exit</title>
<path fill="none" stroke="black" d="M95.6883,-161.207C81.559,-146.632 63.8137,-128.327 50.1225,-114.204"/>
<polygon fill="black" stroke="black" points="52.4556,-111.582 42.9822,-106.838 47.4296,-116.455 52.4556,-111.582"/>
<text text-anchor="middle" x="90.0975" y="-130.8" font-family="Times,serif" font-size="14.00">yes</text>
</g>
<!-- get_rss -->
<g id="node6" class="node"><title>get_rss</title>
<ellipse fill="none" stroke="black" cx="119.597" cy="-91" rx="44.6926" ry="18"/>
<text text-anchor="middle" x="119.597" y="-87.3" font-family="Times,serif" font-size="14.00">get_rss</text>
</g>
<!-- allupdated&#45;&gt;get_rss -->
<g id="edge5" class="edge"><title>allupdated&#45;&gt;get_rss</title>
<path fill="none" stroke="black" d="M119.597,-159.971C119.597,-147.337 119.597,-132.139 119.597,-119.32"/>
<polygon fill="black" stroke="black" points="123.098,-119.221 119.597,-109.221 116.098,-119.222 123.098,-119.221"/>
<text text-anchor="middle" x="128.597" y="-130.8" font-family="Times,serif" font-size="14.00">no</text>
</g>
<!-- add_entry -->
<g id="node7" class="node"><title>add_entry</title>
<ellipse fill="none" stroke="black" cx="167.597" cy="-18" rx="57.6901" ry="18"/>
<text text-anchor="middle" x="167.597" y="-14.3" font-family="Times,serif" font-size="14.00">add_entry</text>
</g>
<!-- get_rss&#45;&gt;add_entry -->
<g id="edge6" class="edge"><title>get_rss&#45;&gt;add_entry</title>
<path fill="none" stroke="black" d="M130.73,-73.5327C136.583,-64.8763 143.884,-54.0762 150.442,-44.3765"/>
<polygon fill="black" stroke="black" points="153.49,-46.1157 156.192,-35.871 147.691,-42.1952 153.49,-46.1157"/>
</g>
<!-- add_entry&#45;&gt;allupdated -->
<g id="edge7" class="edge"><title>add_entry&#45;&gt;allupdated</title>
<path fill="none" stroke="black" d="M172.365,-36.0285C176.699,-54.4637 181.339,-84.5127 173.597,-109 168.556,-124.946 158.89,-140.45 149.113,-153.308"/>
<polygon fill="black" stroke="black" points="146.2,-151.348 142.719,-161.354 151.681,-155.703 146.2,-151.348"/>
</g>
</g>
</svg>
